<?xml version="1.0" standalone="no"?>
<!DOCTYPE svg PUBLIC "-//W3C//DTD SVG 20010904//EN"
 "http://www.w3.org/TR/2001/REC-SVG-20010904/DTD/svg10.dtd">
<svg version="1.0" xmlns="http://www.w3.org/2000/svg"
 width="1080.000000pt" height="1080.000000pt" viewBox="0 0 1080.000000 1080.000000"
 preserveAspectRatio="xMidYMid meet">
<metadata>
Created by potrace 1.14, written by Peter Selinger 2001-2017
</metadata>
<g transform="translate(0.000000,1080.000000) scale(0.100000,-0.100000)"
fill="#000000" stroke="none">
<path d="M3600 10788 c0 -13 42 -20 53 -9 14 14 64 14 73 0 5 -9 -1 -10 -19
-5 -19 4 -26 3 -23 -6 1 -7 1 -10 -1 -5 -7 12 -25 8 -21 -4 2 -7 -11 -28 -29
-47 -18 -19 -33 -43 -33 -53 0 -11 -6 -19 -12 -19 -9 0 -9 -3 1 -9 12 -8 12
-14 1 -40 -18 -44 -35 -52 -27 -13 8 38 -8 43 -17 7 -4 -14 -11 -23 -15 -20
-5 3 -11 -15 -12 -39 -2 -24 -1 -42 4 -39 4 2 7 15 7 29 0 13 5 24 11 24 7 0
8 -18 4 -52 -5 -40 -2 -64 12 -98 16 -40 18 -65 13 -220 -3 -96 -7 -169 -8
-161 -1 8 -5 12 -8 9 -19 -20 74 -149 149 -206 l28 -21 -20 -45 c-12 -25 -21
-56 -21 -70 0 -14 -4 -28 -10 -31 -5 -3 -10 -15 -10 -25 0 -10 -8 -21 -19 -25
-10 -3 -32 -24 -47 -47 -26 -36 -29 -50 -29 -115 0 -46 -4 -73 -11 -73 -20 0
-61 -45 -89 -97 -34 -64 -115 -120 -115 -80 0 21 -35 49 -70 56 -30 6 -31 6
-13 26 10 11 27 37 38 58 14 26 24 35 35 31 35 -15 47 -14 62 3 18 20 59 158
50 167 -3 3 13 6 35 6 43 0 53 10 53 56 0 14 -7 40 -14 59 -8 19 -11 35 -6 35
18 0 40 33 40 61 0 45 -26 86 -65 105 -32 15 -35 20 -35 58 0 106 -35 173 -85
164 -13 -3 -26 0 -29 6 -2 6 -5 3 -5 -6 -1 -15 -39 -46 -45 -36 -35 63 -45 91
-36 109 12 21 1 26 -18 7 -10 -10 -15 -10 -21 1 -7 11 -14 10 -37 -8 -15 -12
-30 -17 -33 -12 -4 5 -14 -4 -23 -20 -15 -26 -15 -29 -1 -29 11 0 13 -4 6 -12
-6 -7 -13 -25 -17 -40 -3 -16 -12 -28 -19 -28 -20 0 -38 -16 -41 -36 -2 -10
-11 -21 -21 -23 -10 -2 -25 -9 -32 -16 -17 -18 -17 -84 2 -128 17 -42 19 -50
6 -43 -5 4 -11 0 -13 -6 -3 -7 -5 2 -5 20 0 18 -5 38 -11 44 -8 8 -9 5 -5 -11
3 -11 0 -27 -5 -34 -6 -7 -11 -40 -11 -72 1 -54 4 -62 37 -95 20 -19 35 -38
34 -42 -1 -5 3 -8 8 -8 6 0 0 -16 -12 -34 -24 -37 -35 -35 -43 5 -7 35 -37 72
-73 89 -17 8 -32 19 -32 23 0 16 29 77 37 76 19 -3 27 2 15 9 -10 7 -10 15 -2
36 17 45 13 73 -12 80 -36 9 -48 7 -48 -9 0 -8 -6 -25 -12 -38 -7 -12 -14 -23
-14 -25 -5 -11 -56 26 -60 44 -8 31 -1 59 14 60 23 3 24 4 12 19 -15 19 -13
21 24 31 26 6 29 5 23 -15 -3 -11 -1 -21 4 -21 17 0 9 37 -11 55 -15 14 -17
21 -9 32 9 10 6 12 -20 7 -30 -6 -45 9 -18 19 7 3 5 6 -5 6 -10 1 -18 -6 -18
-15 0 -12 -7 -15 -25 -12 -17 4 -29 0 -34 -11 -8 -13 -11 -11 -16 12 -8 32
-25 36 -25 6 0 -16 -4 -19 -20 -14 -12 4 -26 0 -36 -9 -19 -20 -38 -21 -31 -2
4 10 -2 18 -16 22 -12 4 -26 12 -30 18 -5 6 -5 1 -2 -11 4 -16 2 -23 -8 -23
-30 0 -37 -24 -22 -79 10 -40 11 -59 3 -77 -12 -27 -34 -34 -24 -8 5 13 3 14
-6 6 -9 -7 -17 -6 -26 4 -11 12 -9 17 8 16 3 0 7 9 7 21 1 12 -1 17 -5 11 -4
-6 -15 -10 -24 -8 -10 1 -18 -1 -18 -6 0 -5 -8 -7 -17 -6 -24 4 -48 -31 -34
-47 6 -8 11 -78 12 -167 1 -85 4 -149 7 -142 2 7 14 -9 27 -36 13 -27 28 -53
34 -56 15 -10 14 -26 -2 -21 -18 7 -42 -34 -28 -48 8 -8 11 -5 11 11 0 13 6
22 15 22 20 0 19 -7 -6 -33 l-20 -22 -19 25 c-17 22 -17 25 -2 37 19 14 4 17
-17 4 -10 -7 -18 -5 -25 4 -6 8 -36 21 -66 30 l-55 15 55 -3 c30 -2 45 -2 33
0 -36 7 -27 21 15 26 20 3 6 3 -33 1 -47 -2 -73 -8 -81 -18 -7 -11 -14 -12
-21 -5 -23 23 -47 5 -60 -46 -7 -28 -13 -58 -13 -67 0 -29 18 -21 23 10 4 27
4 27 6 1 0 -14 -6 -34 -14 -45 -8 -11 -15 -14 -15 -6 0 6 -6 12 -14 12 -9 0
-12 7 -9 19 5 19 -17 34 -33 23 -52 -38 -41 -192 19 -274 12 -15 18 -31 14
-34 -3 -4 -12 5 -18 20 -12 26 -29 35 -29 16 0 -5 4 -10 9 -10 5 0 7 -8 4 -19
-3 -14 2 -20 22 -25 15 -4 34 -14 42 -21 13 -13 10 -15 -24 -15 -25 0 -33 3
-24 9 8 6 9 11 3 15 -6 4 -19 -2 -29 -12 -10 -11 -33 -25 -50 -33 -20 -8 -33
-21 -33 -31 0 -14 -9 -18 -37 -19 -31 -2 -33 -3 -10 -6 25 -4 40 -33 17 -33
-5 0 -10 5 -10 11 0 5 -4 7 -10 4 -15 -10 -12 -23 8 -28 16 -4 16 -4 -2 -12
-12 -5 -21 -3 -27 6 -8 11 -9 9 -7 -6 4 -25 16 -35 46 -35 12 0 22 -4 22 -9 0
-13 -35 -20 -54 -9 -10 6 -16 5 -16 -2 0 -5 -7 -10 -15 -10 -8 0 -15 -7 -15
-15 0 -10 10 -15 28 -15 20 0 23 3 12 10 -8 5 -11 12 -7 16 4 4 13 2 20 -5 9
-10 8 -15 -5 -25 -23 -17 -23 -22 2 -29 14 -4 20 -14 20 -35 0 -17 5 -34 10
-37 6 -3 10 -17 10 -31 0 -14 6 -24 15 -24 9 0 12 6 9 15 -4 8 -2 15 4 15 5 0
15 -7 22 -15 7 -8 21 -15 31 -15 35 0 19 -19 -18 -23 l-38 -4 40 0 c22 0 54
-6 70 -13 17 -7 38 -12 48 -12 21 1 22 -5 2 -24 -8 -9 -15 -11 -15 -5 0 6 -10
11 -23 11 -13 0 -28 5 -35 12 -9 9 -12 9 -12 0 0 -7 4 -12 8 -12 4 0 8 -10 9
-22 1 -11 8 -25 15 -29 10 -6 10 -11 1 -20 -10 -10 -15 -7 -23 12 -10 24 -10
23 -5 -3 3 -16 1 -28 -5 -28 -5 0 -10 -19 -9 -42 0 -32 2 -38 8 -23 5 12 8 -6
7 -48 -1 -55 3 -71 17 -81 9 -7 17 -18 17 -25 0 -6 4 -11 9 -11 5 0 17 -7 26
-16 19 -20 95 -36 110 -24 6 4 34 16 63 25 28 10 52 21 52 26 0 4 12 21 28 36
21 22 33 27 56 23 28 -5 29 -6 13 -22 -9 -9 -17 -23 -17 -32 0 -8 -8 -19 -17
-25 -17 -9 -17 -10 0 -16 9 -4 28 -4 42 -1 19 5 28 1 40 -18 23 -35 11 -129
-19 -154 -20 -16 -21 -25 -23 -252 -1 -129 -7 -275 -13 -325 -13 -106 -13
-187 0 -195 5 -3 11 -89 13 -190 3 -133 7 -184 15 -183 15 4 15 -22 0 -64 -12
-34 -4 -58 12 -33 7 11 10 5 10 -22 0 -20 5 -40 10 -43 6 -3 10 -19 10 -34 0
-15 5 -32 12 -39 6 -6 11 -33 10 -59 0 -32 2 -41 7 -28 6 14 9 8 14 -29 10
-73 8 -194 -3 -201 -6 -4 -9 -51 -7 -115 1 -59 3 -107 5 -105 1 1 7 22 11 46
8 39 9 36 8 -36 0 -44 5 -96 11 -115 6 -19 16 -82 22 -138 13 -115 17 -132 34
-132 16 0 66 -107 60 -128 -5 -13 -4 -14 4 -3 6 8 12 9 16 3 3 -5 -1 -15 -9
-22 -8 -7 -15 -18 -15 -24 0 -6 4 -4 10 4 14 23 23 4 9 -22 -11 -21 -11 -22 4
-9 10 7 17 20 17 27 0 8 5 14 10 14 6 0 10 -4 10 -10 0 -14 85 -91 134 -120
68 -42 134 -60 218 -60 45 0 80 -5 84 -11 4 -8 0 -9 -15 -4 -11 3 -26 3 -33
-2 -9 -5 -1 -10 22 -13 40 -7 62 -2 54 11 -3 5 2 9 11 9 10 0 13 -5 9 -12 -5
-8 -2 -9 12 -3 10 4 32 10 49 13 16 3 35 11 43 18 7 8 23 14 35 14 16 0 18 3
9 9 -11 7 -10 10 3 15 23 8 27 8 20 -4 -3 -5 -1 -10 4 -10 6 0 11 10 11 22 0
12 3 18 8 14 4 -4 7 -13 7 -19 0 -16 33 -21 50 -7 8 6 11 18 8 27 -3 8 -2 18
3 22 12 8 65 106 82 151 7 20 10 10 11 -47 0 -39 5 -83 11 -98 6 -15 13 -109
17 -208 4 -105 10 -171 14 -157 5 15 7 -8 7 -60 0 -47 3 -96 7 -110 25 -99 29
-154 17 -272 -7 -68 -12 -178 -12 -245 0 -68 -3 -123 -8 -123 -4 0 -6 -33 -5
-72 2 -40 1 -83 -2 -96 -9 -40 -35 -1 -36 55 -1 26 -4 62 -8 78 -6 25 -8 20
-14 -34 -8 -76 -7 -165 2 -206 7 -27 8 -24 15 28 5 32 10 56 13 53 8 -7 13
-216 5 -216 -4 0 -6 18 -4 40 3 25 0 40 -7 40 -7 0 -11 -20 -11 -51 0 -31 4
-48 10 -44 6 4 10 -12 10 -40 0 -28 -4 -44 -10 -40 -6 4 -10 -12 -10 -39 0
-25 -4 -46 -10 -46 -5 0 -10 -20 -10 -44 0 -25 -5 -48 -11 -52 -6 -4 -9 -19
-5 -36 5 -23 3 -29 -8 -25 -11 4 -14 -4 -13 -36 2 -88 -4 -143 -13 -122 -7 18
-9 18 -15 3 -4 -9 -4 -22 0 -28 3 -5 3 -15 -1 -22 -5 -7 -7 -29 -5 -49 1 -20
-2 -40 -8 -44 -6 -3 -11 -24 -11 -46 0 -28 -4 -39 -15 -39 -8 0 -15 -6 -15
-14 0 -9 -9 -14 -20 -13 -11 1 -20 6 -20 12 0 6 -16 9 -40 7 -22 -2 -40 -8
-40 -12 0 -4 12 -5 26 -2 19 3 25 1 20 -7 -4 -6 -16 -11 -26 -11 -12 0 -17 -5
-14 -13 2 -7 -4 -22 -16 -32 -11 -10 -20 -23 -20 -30 0 -12 -41 -55 -52 -55
-14 0 5 39 21 43 14 4 14 5 -1 6 -10 0 -22 -7 -27 -18 -6 -10 -20 -21 -31 -24
-16 -4 -20 0 -20 18 0 13 -4 27 -10 30 -6 4 -10 -6 -10 -23 0 -20 -7 -32 -22
-40 -22 -10 -22 -10 10 -22 36 -13 33 -26 -8 -32 -14 -2 -24 -9 -23 -15 3 -16
-34 -36 -53 -29 -8 3 -14 1 -14 -3 0 -5 6 -11 13 -14 6 -2 0 -8 -15 -12 -16
-4 -28 -11 -28 -16 0 -5 -6 -9 -14 -9 -8 0 -16 -7 -20 -15 -3 -9 -19 -15 -38
-16 -25 0 -29 -2 -14 -8 16 -6 12 -12 -30 -39 -27 -18 -71 -48 -99 -67 -27
-18 -56 -34 -62 -34 -7 -1 -13 -5 -13 -10 0 -15 -33 -22 -42 -9 -6 9 -8 7 -4
-7 4 -15 -3 -26 -29 -43 -19 -12 -40 -22 -45 -22 -6 0 -9 -4 -5 -9 9 -15 -25
-42 -46 -36 -15 5 -17 3 -12 -11 5 -14 3 -16 -11 -11 -14 6 -17 3 -12 -8 3 -9
2 -13 -3 -10 -5 3 -20 -13 -32 -35 -24 -42 -35 -49 -42 -27 -2 6 -3 3 -1 -8 2
-10 -9 -40 -25 -65 -15 -25 -31 -54 -35 -65 -5 -13 -10 -15 -13 -7 -3 6 -9 12
-15 12 -6 0 -5 -6 2 -15 10 -13 10 -19 -4 -33 -9 -10 -16 -26 -16 -35 0 -9 -6
-16 -13 -15 -8 2 -11 -9 -10 -37 2 -32 1 -36 -7 -19 -19 48 -25 26 -28 -109
-1 -77 -6 -145 -11 -151 -5 -6 -11 -48 -13 -94 -4 -64 -2 -82 9 -82 10 0 13
-35 13 -170 0 -141 -2 -170 -14 -170 -12 0 -13 -11 -9 -55 4 -36 2 -55 -5 -55
-6 0 -12 6 -15 13 -2 6 -3 3 -1 -8 2 -11 4 -46 4 -78 0 -36 4 -56 10 -52 5 3
10 -3 10 -14 0 -12 -4 -21 -10 -21 -5 0 -10 -19 -9 -42 0 -33 2 -38 9 -23 7
16 9 13 9 -16 1 -19 5 -39 10 -45 8 -8 12 -32 24 -134 5 -43 18 -90 33 -118 8
-15 14 -36 14 -47 0 -11 7 -29 15 -39 8 -11 13 -29 9 -40 -4 -17 -3 -18 5 -6
9 12 11 12 17 -3 3 -9 4 -24 0 -32 -3 -9 0 -15 8 -15 9 0 17 -16 21 -40 4 -22
11 -40 16 -40 5 0 9 -12 9 -27 0 -16 7 -37 15 -47 17 -23 20 -72 5 -81 -6 -4
-8 -11 -4 -16 3 -6 11 -3 18 7 11 15 14 13 20 -17 5 -26 2 -37 -11 -46 -16
-12 -16 -13 0 -13 9 0 17 5 17 10 0 22 16 8 26 -23 6 -17 14 -40 19 -49 4 -11
3 -18 -3 -18 -6 0 -13 8 -15 18 -4 13 -5 11 -6 -5 -1 -16 5 -23 18 -23 12 0
23 -9 27 -22 4 -13 14 -28 23 -35 12 -10 351 -12 1520 -13 l1503 0 -5 33 c-21
118 -23 136 -13 134 6 -1 13 18 16 43 l6 45 8 -35 c5 -19 13 -40 18 -47 5 -7
8 -22 5 -35 -4 -20 -4 -19 -6 5 0 16 -5 26 -11 22 -5 -3 -10 -42 -10 -86 l0
-79 68 1 c49 0 62 3 47 10 -15 7 -11 7 15 3 19 -4 157 -9 305 -11 l270 -4 55
41 c30 22 100 73 155 114 107 78 208 146 219 146 3 0 5 -15 5 -33 -2 -64 14
-267 22 -267 4 0 10 19 12 43 l4 42 1 -43 2 -42 493 0 492 1 0 57 c1 79 49
193 76 177 4 -3 20 15 34 39 19 32 31 43 43 40 13 -5 14 -4 4 4 -11 8 -10 16
5 48 29 59 69 223 75 305 0 13 4 2 8 -26 5 -34 6 -12 6 69 -1 87 2 120 11 123
8 3 13 21 13 43 0 21 3 45 6 54 10 25 25 7 18 -22 -5 -26 -5 -26 10 -8 13 16
13 21 1 40 -17 23 -20 62 -6 71 5 3 8 20 7 38 -2 17 -1 23 1 12 11 -47 18 -29
15 41 -2 41 1 80 6 87 21 25 24 256 8 445 -9 100 -21 193 -25 205 -5 13 -10
54 -12 92 -2 39 -7 77 -11 85 -10 19 -39 146 -41 180 -1 14 -6 28 -12 32 -6 5
-4 8 4 8 12 0 12 2 -1 13 -17 13 -31 67 -17 67 4 0 10 -12 12 -27 3 -21 4 -17
5 12 1 22 -5 54 -13 70 l-14 30 6 -35 c10 -63 -17 -19 -29 48 -6 34 -15 62
-19 62 -4 0 -15 26 -24 58 -10 31 -24 77 -32 101 -15 47 -9 67 11 38 17 -22
26 -22 26 1 0 22 -34 44 -56 35 -15 -5 -16 -1 -10 31 5 24 4 36 -2 32 -6 -3
-13 1 -16 10 -4 10 -2 13 7 7 6 -4 4 5 -6 20 -11 17 -16 36 -12 50 5 17 4 19
-4 7 -8 -12 -12 -9 -17 18 -4 17 -10 32 -15 32 -11 0 -12 27 -1 33 4 2 1 2 -5
1 -7 -2 -13 1 -13 7 0 11 -25 67 -70 162 -21 42 -24 57 -13 53 9 -4 13 -1 10
6 -2 7 -11 12 -19 11 -10 -2 -13 6 -10 32 2 20 0 35 -6 35 -6 0 -8 -9 -5 -20
3 -11 0 -20 -6 -20 -6 0 -11 9 -11 20 0 11 -7 23 -15 26 -8 4 -12 10 -9 15 3
5 0 9 -5 9 -6 0 -11 5 -11 11 0 5 4 8 8 5 5 -3 9 7 9 22 0 25 -3 28 -30 24
-19 -3 -28 -1 -23 6 3 6 -2 17 -11 24 -24 18 -46 58 -33 58 6 0 13 -7 16 -15
4 -8 15 -15 25 -15 12 0 21 -10 25 -26 5 -19 9 -23 14 -13 15 28 20 69 10 69
-6 0 -8 -4 -5 -10 3 -5 -3 -10 -14 -10 -12 0 -21 4 -21 10 0 5 -16 12 -35 16
-39 7 -75 45 -75 79 0 22 -48 80 -59 70 -3 -3 7 -17 22 -31 45 -41 34 -62 -12
-23 -22 19 -38 40 -35 47 2 7 -6 12 -18 12 -21 0 -21 1 -4 13 17 13 17 14 -8
30 -29 20 -36 21 -36 7 0 -5 7 -10 15 -10 8 0 15 -4 15 -10 0 -18 -32 -10 -37
9 -3 11 -10 18 -17 15 -6 -2 -38 9 -71 26 -32 16 -63 30 -69 30 -6 0 -28 16
-49 35 -21 19 -47 35 -57 35 -10 0 -22 5 -25 10 -3 6 5 10 19 10 29 0 43 17
27 33 -9 9 -10 7 -5 -7 5 -14 4 -17 -5 -12 -18 11 -71 -4 -71 -20 0 -8 11 -25
25 -38 l25 -23 -25 5 c-14 2 -25 8 -25 13 0 5 -18 9 -40 9 -33 0 -40 3 -40 20
0 14 -7 20 -24 20 -13 0 -31 3 -40 6 -9 3 -16 1 -16 -4 0 -6 12 -13 28 -15 15
-2 -39 -5 -120 -6 -100 -1 -148 3 -148 10 0 6 -7 18 -16 27 -10 9 -12 18 -6
20 6 2 -7 22 -29 45 -27 29 -37 48 -33 62 4 15 3 17 -4 6 -9 -12 -18 -11 -56
8 -50 23 -77 21 -169 -15 -21 -8 -43 -11 -49 -8 -7 5 -9 1 -5 -9 3 -10 2 -17
-3 -17 -6 0 -10 14 -10 30 0 17 5 30 10 30 6 0 10 7 10 16 0 8 -4 13 -9 10 -5
-4 -7 3 -4 14 3 12 14 20 25 20 15 0 19 -5 16 -18 -3 -11 0 -19 7 -19 17 0 7
32 -16 53 -17 15 -19 15 -25 0 -3 -9 -13 -16 -21 -16 -11 0 -13 7 -9 26 6 21
4 25 -8 21 -12 -5 -16 0 -16 15 0 12 -3 18 -7 15 -3 -4 -12 -2 -20 4 -10 9
-10 15 -2 25 7 9 8 14 1 14 -6 0 -12 -6 -15 -12 -3 -10 -10 -8 -24 5 -18 16
-21 16 -26 2 -4 -8 -13 -15 -20 -15 -8 0 -22 -9 -32 -20 -22 -24 -35 -26 -35
-5 0 8 -4 15 -10 15 -14 0 -12 -11 4 -29 9 -10 12 -22 7 -29 -8 -13 -18 -4
-144 114 -23 22 -44 33 -53 30 -9 -3 -21 -6 -27 -7 -7 0 -3 -4 8 -9 30 -13
-87 -13 -121 0 -26 10 -26 11 -8 25 17 13 18 14 2 15 -16 0 -18 11 -18 83 0
46 5 88 10 93 6 6 12 29 13 52 0 23 4 37 8 31 4 -7 8 -5 12 5 3 8 1 18 -4 22
-11 7 -9 40 13 169 11 62 13 66 20 40 4 -19 5 -10 2 24 -4 43 -2 56 13 67 16
12 16 15 3 24 -9 6 -10 10 -3 10 6 0 14 9 18 19 6 21 48 36 54 20 2 -6 12 -2
23 8 16 15 35 18 96 16 46 -2 84 -8 97 -17 22 -15 23 -14 23 19 0 34 -10 45
-23 25 -3 -5 -25 -10 -48 -9 -23 0 -37 2 -32 4 6 1 30 8 55 15 25 7 54 16 65
21 37 16 200 71 215 73 8 1 26 8 40 16 14 7 47 13 73 13 47 -1 53 10 12 19
-17 4 -16 7 10 17 16 7 32 15 35 19 3 4 21 15 41 25 20 10 48 30 63 44 15 13
33 22 41 19 8 -3 14 -2 13 2 -1 4 32 40 74 80 61 59 85 91 117 158 47 96 121
282 121 303 0 8 3 11 7 7 6 -6 13 13 45 129 6 22 15 45 21 50 6 7 7 2 3 -15
-4 -14 -10 -36 -12 -50 -5 -25 -5 -25 11 -5 11 13 15 32 12 56 -6 44 57 295
72 292 6 -2 11 9 10 25 0 24 -1 25 -10 7 -7 -16 -8 -14 -4 10 2 17 9 61 15
100 11 71 20 96 20 57 0 -12 4 -22 8 -22 5 0 9 39 9 88 2 169 7 235 21 238 7
1 8 0 2 -3 -5 -2 -10 -14 -10 -25 0 -21 0 -21 19 0 11 14 30 22 50 22 21 0 31
5 31 15 0 8 3 14 8 14 27 -5 34 3 30 31 -3 23 -1 30 9 26 9 -4 13 4 13 28 0
18 5 58 10 87 6 30 15 97 20 149 13 127 20 156 31 139 5 -9 6 5 3 33 -5 32 -2
62 9 90 8 24 18 86 21 138 9 146 13 519 6 480 -6 -31 -8 -32 -9 -8 0 15 -10
66 -21 113 -21 89 -25 124 -10 90 8 -19 9 -19 9 2 1 13 -8 28 -19 35 -11 7
-20 21 -20 30 0 10 -4 18 -10 18 -6 0 -6 9 0 26 13 32 12 56 -1 29 -7 -16 -9
-14 -6 13 2 17 0 32 -5 32 -12 0 -10 28 3 32 6 2 12 40 14 93 3 101 -1 102
-12 2 -5 -37 -12 -66 -18 -65 -5 2 -9 5 -9 8 1 3 4 32 7 65 l6 60 -13 -40 -13
-40 -7 40 c-4 22 -23 81 -42 130 -40 106 -44 140 -14 132 11 -3 20 -2 20 2 0
13 -57 71 -63 65 -7 -8 -37 14 -37 27 0 5 6 6 14 3 13 -5 31 24 21 34 -3 3 -5
0 -5 -6 0 -7 -4 -12 -10 -12 -14 0 -12 74 2 88 7 7 9 12 4 12 -18 0 -38 -32
-32 -54 3 -13 3 -26 -1 -29 -10 -11 -34 45 -27 66 4 14 3 17 -6 12 -13 -8 -41
26 -51 62 -6 17 -2 23 15 26 14 3 11 5 -10 6 -34 1 -63 24 -44 36 16 10 12 45
-6 45 -8 0 -13 4 -9 10 3 5 12 7 20 3 9 -3 15 1 15 11 0 8 10 21 22 27 14 8
18 14 10 17 -6 2 -9 8 -6 13 3 6 1 16 -5 23 -15 18 8 76 31 76 13 0 18 -8 18
-29 0 -64 53 -46 88 28 26 57 29 131 8 206 -7 28 -15 56 -17 64 -2 8 9 18 27
25 62 22 122 90 110 123 -4 9 -9 13 -13 10 -3 -4 -19 1 -34 10 -24 14 -29 24
-29 56 0 31 4 40 21 44 38 10 19 46 -41 75 -30 14 -59 31 -63 36 -37 43 -48
51 -60 46 -20 -7 -28 20 -17 53 5 15 12 48 15 73 4 25 10 70 14 100 5 30 9 49
10 43 2 -20 21 -15 21 6 0 20 -43 71 -60 71 -6 0 -31 -9 -55 -20 -33 -15 -53
-35 -82 -80 -40 -62 -68 -80 -57 -35 3 14 3 33 -2 42 -4 10 -8 34 -9 53 -1 19
-7 36 -14 38 -14 5 -15 32 -1 32 6 0 10 4 10 8 0 4 -8 8 -19 8 -13 0 -17 -6
-13 -21 4 -17 2 -17 -14 5 -10 14 -18 29 -16 34 1 4 -4 13 -13 20 -9 6 -17 21
-18 33 -1 14 -14 29 -34 40 -19 10 -33 26 -34 38 -1 13 -3 15 -5 5 -3 -11 -22
-16 -72 -18 -37 -1 -75 -5 -84 -8 -13 -4 -16 -1 -12 10 3 9 10 16 15 16 12 0
11 87 -1 95 -5 3 -10 26 -10 51 0 28 -4 43 -10 39 -6 -4 -8 -11 -5 -16 4 -5 3
-9 -2 -9 -12 0 -35 16 -34 24 3 19 -1 24 -20 29 -13 3 -19 11 -17 19 5 11 -22
14 -127 17 l-133 3 -36 -55 c-64 -96 -169 -177 -230 -177 -32 0 -76 20 -76 35
0 30 79 131 135 172 l30 22 -77 1 -76 0 -31 -38 c-16 -21 -35 -50 -42 -65 -7
-15 -16 -27 -20 -27 -10 0 5 61 24 99 l15 31 -38 0 c-43 0 -50 -12 -50 -92 0
-26 -4 -50 -10 -53 -5 -3 -10 -30 -10 -60 0 -30 -5 -57 -11 -60 -6 -4 -8 -22
-4 -44 6 -35 4 -38 -37 -61 -24 -13 -58 -34 -75 -48 l-33 -24 -2 123 c-1 68
-1 146 1 172 1 27 -3 71 -9 98 l-12 49 -84 0 -83 0 -5 -32 c-3 -18 -7 -84 -9
-145 -2 -62 -6 -115 -9 -119 -3 -3 -17 6 -31 20 -13 13 -43 30 -66 37 -37 11
-43 10 -56 -7 -28 -35 -29 -64 -4 -117 13 -29 28 -59 35 -67 22 -27 54 -91 50
-98 -7 -12 -346 -6 -359 7 -6 6 -17 11 -24 11 -27 0 -10 16 49 45 34 17 78 46
99 65 50 48 114 150 128 204 9 38 16 47 39 52 77 16 104 51 78 99 l-18 32
-105 7 c-131 8 -303 8 -303 0 0 -12 24 -50 39 -61 9 -7 26 -13 39 -13 15 0 26
-9 32 -24 13 -35 53 -58 92 -54 43 4 44 -17 1 -65 -38 -43 -111 -91 -208 -136
-65 -30 -75 -32 -141 -26 -62 6 -73 10 -82 30 -19 42 -23 89 -12 139 12 56 64
169 86 187 8 6 14 15 14 20 0 14 -243 10 -252 -4 -6 -9 -11 -8 -18 3 -9 13
-11 13 -20 0 -6 -10 -10 -11 -10 -2 0 16 -467 13 -478 -4 -11 -17 -45 -26 -52
-14 -10 16 -290 33 -290 18z m2723 -103 c-3 -9 -8 -14 -10 -11 -3 3 -2 9 2 15
9 16 15 13 8 -4z m-2154 -94 c12 -16 21 -37 21 -46 0 -10 -40 -57 -89 -106
-86 -86 -90 -89 -93 -62 -2 24 -8 29 -36 31 -38 4 -61 -18 -62 -56 0 -54 32
-74 82 -52 18 8 32 7 60 -7 l38 -19 -27 -39 c-14 -22 -29 -42 -33 -45 -17 -13
-49 -79 -55 -113 -7 -35 -52 -87 -77 -87 -13 0 0 100 15 118 6 8 11 46 11 85
1 71 1 72 -30 86 -34 15 -74 75 -74 110 0 14 -6 21 -20 21 -11 0 -20 -7 -20
-15 0 -20 -3 -19 -47 10 -60 39 -61 41 -54 77 10 48 66 76 123 61 34 -9 48 -8
71 4 35 18 57 11 57 -19 0 -23 36 -68 55 -68 19 0 46 36 50 66 3 30 68 93 97
94 9 0 26 -13 37 -29z m1971 -46 c-23 -25 -40 -32 -40 -17 0 7 49 41 59 42 3
0 -6 -11 -19 -25z m-320 -27 c0 -4 -6 -8 -14 -8 -14 0 -28 35 -18 45 7 6 32
-23 32 -37z m206 -39 c10 -17 -12 -32 -37 -24 -22 7 -22 8 -4 21 23 17 32 17
41 3z m1070 -236 c-8 -15 -28 -44 -45 -63 l-31 -35 22 40 c12 22 26 42 30 43
4 2 8 9 8 16 0 13 21 38 28 32 2 -2 -3 -17 -12 -33z m-192 -152 c3 -5 -1 -11
-9 -14 -9 -4 -12 -1 -8 9 6 16 10 17 17 5z m126 -80 c0 -22 -32 -81 -51 -94
-20 -14 -54 -58 -118 -154 -28 -42 -28 -42 -40 -20 -11 20 -7 32 28 93 53 92
181 216 181 175z m-4326 -73 c-3 -12 -13 -37 -21 -57 l-15 -35 -24 39 c-13 22
-21 41 -18 44 3 3 9 -1 14 -9 8 -12 10 -11 10 7 0 16 5 20 19 16 10 -3 22 0
25 6 12 19 18 12 10 -11z m-86 -165 c14 -40 21 -85 22 -147 0 -49 2 -91 2 -95
1 -3 -6 -20 -15 -38 -9 -18 -17 -39 -17 -47 0 -19 -48 -32 -69 -19 -28 18 -65
103 -69 162 l-4 56 48 0 c42 0 49 3 64 30 12 21 15 37 9 53 -12 30 -12 115 0
108 4 -3 17 -31 29 -63z m122 -7 c-9 -18 -9 -30 4 -60 18 -43 38 -53 73 -37
l25 11 -23 -37 c-13 -21 -27 -45 -33 -54 -6 -11 -22 -17 -43 -16 l-33 1 0 97
c0 54 5 110 11 126 10 26 11 26 21 9 7 -13 7 -25 -2 -40z m4466 9 c20 -31 12
-43 -34 -51 -20 -3 -47 -13 -60 -21 -13 -8 -31 -11 -42 -8 -17 5 -15 10 18 55
31 42 42 50 69 50 24 0 37 -7 49 -25z m-4219 -47 c-3 -7 -5 -2 -5 12 0 14 2
19 5 13 2 -7 2 -19 0 -25z m3876 -76 c12 -11 45 -26 72 -33 109 -25 152 -62
173 -146 l10 -43 -67 6 c-38 3 -72 1 -81 -5 -10 -7 -17 -33 -20 -78 l-5 -68
-39 75 c-22 41 -50 88 -63 103 -18 23 -21 32 -12 48 7 14 7 41 -2 94 -6 41 -8
82 -4 92 8 16 9 16 12 -3 2 -12 14 -31 26 -42z m-207 -9 c-11 -11 -17 4 -9 23
7 18 8 18 11 1 2 -10 1 -21 -2 -24z m-3150 -71 c-11 -10 -15 4 -8 28 l7 25 3
-23 c2 -13 1 -26 -2 -30z m2099 -55 c14 -15 25 -36 25 -46 0 -11 13 -32 28
-48 15 -15 42 -48 59 -73 38 -55 102 -123 167 -175 27 -22 60 -50 75 -62 14
-13 32 -23 39 -23 14 0 15 -10 2 -30 -8 -13 -10 -12 -10 3 0 9 -7 17 -15 17
-9 0 -12 -6 -9 -15 7 -17 -11 -21 -21 -5 -9 15 -19 12 -45 -10 -13 -11 -18
-20 -12 -20 6 0 18 7 27 16 15 15 15 14 9 -10 -5 -20 -2 -31 11 -40 11 -8 16
-20 12 -29 -7 -19 16 -51 33 -45 17 5 53 -29 45 -42 -3 -6 4 -9 17 -7 15 1 26
-5 33 -20 5 -13 14 -23 19 -23 14 0 140 -81 149 -96 4 -8 15 -14 22 -14 8 0
24 -9 35 -20 11 -11 30 -20 43 -20 13 0 28 -5 35 -12 7 -7 12 -9 12 -6 0 12
-70 78 -81 78 -7 0 -9 3 -5 7 4 4 22 -1 42 -12 34 -18 35 -18 49 1 14 19 14
19 15 -1 0 -11 9 -35 20 -53 11 -18 17 -38 14 -44 -5 -8 -1 -9 10 -5 11 4 19
1 23 -11 6 -14 8 -13 14 8 l6 25 10 -25 c6 -14 20 -34 32 -44 11 -11 21 -31
21 -45 0 -18 3 -22 9 -13 6 10 14 5 30 -21 11 -19 21 -39 21 -45 0 -5 7 -12
15 -16 24 -9 19 -39 -5 -33 -11 3 -20 1 -20 -4 0 -5 9 -9 21 -9 15 0 19 -5 14
-19 -3 -10 1 -24 10 -31 25 -20 17 -30 -23 -30 -43 0 -156 -39 -221 -77 -25
-14 -79 -59 -119 -100 -59 -59 -73 -79 -70 -100 6 -48 28 -49 97 -4 101 65
161 84 284 89 88 3 108 2 107 -9 -4 -28 0 -50 8 -45 5 3 9 -16 10 -42 0 -26 4
-74 8 -107 7 -54 8 -57 15 -30 6 23 7 17 5 -24 -2 -38 -1 -49 6 -37 10 18 7
57 -11 140 -17 77 -6 73 25 -9 5 -15 9 -4 16 40 4 33 15 65 23 71 8 6 11 15 7
19 -4 4 -1 6 7 3 27 -8 36 -35 24 -68 -9 -25 -9 -30 3 -30 8 0 15 8 16 18 1 9
5 -75 9 -188 4 -113 10 -248 12 -300 3 -52 3 -75 0 -50 -2 25 -8 49 -14 54 -5
6 -9 21 -9 35 0 21 -2 23 -10 11 -5 -8 -10 -26 -11 -40 -2 -24 -2 -24 -6 -2
-4 19 -7 21 -19 11 -22 -18 -17 2 7 27 17 18 19 29 14 55 -7 30 -9 31 -21 15
-7 -10 -17 -16 -22 -12 -4 3 -8 -4 -8 -16 1 -29 -16 -32 -33 -6 -10 16 -11 23
-2 26 20 7 38 56 35 97 -5 78 7 185 22 185 10 0 14 15 14 53 0 29 5 58 12 65
9 9 9 15 1 23 -13 13 -35 -21 -39 -61 -20 -191 -27 -230 -40 -219 -11 9 -14 7
-14 -9 0 -15 -13 -27 -46 -42 -59 -25 -90 -27 -52 -2 37 25 74 72 55 72 -8 0
-22 -9 -33 -21 -25 -28 -71 -51 -92 -46 -15 3 -14 5 3 12 29 12 75 47 75 57 0
18 -51 6 -114 -27 -37 -19 -74 -35 -82 -35 -32 0 -91 -40 -120 -81 -54 -77
-105 -253 -96 -331 5 -41 20 -34 43 20 30 67 80 165 90 176 5 6 9 -9 9 -35 1
-77 48 -170 93 -182 17 -5 15 -9 -15 -35 -18 -17 -30 -33 -27 -37 4 -3 23 8
42 24 19 17 39 31 44 31 5 0 29 13 54 28 24 15 75 41 114 57 38 17 82 40 97
53 22 19 31 21 45 12 17 -11 17 -11 1 -6 -10 3 -18 3 -18 -1 0 -3 8 -12 18
-19 14 -11 14 -13 2 -14 -12 0 -12 -2 -2 -8 10 -7 10 -15 -2 -43 -10 -23 -11
-39 -5 -51 5 -10 7 -18 3 -18 -4 0 1 -10 12 -22 l19 -22 -25 16 c-14 9 -24 21
-23 26 3 13 -35 23 -42 11 -9 -13 22 -67 45 -79 14 -7 20 -7 20 0 0 5 5 10 11
10 7 0 8 -7 4 -17 -4 -10 -6 -67 -4 -128 7 -190 2 -349 -10 -353 -16 -5 -15
-159 1 -164 19 -7 -4 -358 -25 -373 -12 -8 -13 -19 -7 -45 7 -32 8 -33 9 -7 1
15 6 27 11 27 12 0 12 -7 4 -49 -4 -17 -13 -31 -20 -31 -10 0 -14 -12 -13 -37
2 -31 3 -33 6 -10 3 15 13 33 24 40 13 8 19 23 19 49 0 21 4 38 10 38 12 0 3
-53 -15 -95 -7 -16 -17 -42 -20 -58 -6 -22 -10 -25 -21 -16 -8 6 -14 19 -14
28 0 14 -2 14 -10 1 -5 -8 -6 -17 -2 -20 26 -19 32 -38 21 -69 -11 -32 -24
-40 -32 -18 -4 7 -6 6 -6 -5 -1 -9 5 -18 12 -21 9 -3 9 -7 1 -18 -7 -8 -15
-29 -19 -47 -3 -18 -14 -40 -23 -49 -9 -9 -17 -24 -18 -32 -1 -34 -17 -72 -29
-68 -7 3 -12 -5 -12 -24 0 -25 -28 -99 -64 -171 -5 -10 -9 -22 -9 -28 0 -6
-10 -31 -23 -58 -12 -26 -29 -66 -36 -89 -15 -46 -37 -58 -186 -104 -38 -12
-104 -32 -145 -44 -41 -13 -109 -33 -150 -45 -41 -12 -88 -26 -103 -31 -16 -5
-59 -11 -95 -15 -37 -3 -76 -9 -87 -14 -42 -16 -126 -32 -179 -32 -54 -1 -188
16 -256 32 -110 25 -299 84 -322 101 -15 10 -37 19 -49 19 -23 0 -23 -11 1
130 7 36 20 79 30 96 10 17 21 60 25 95 4 35 11 66 16 69 5 3 13 46 20 95 18
138 26 191 29 180 1 -5 8 17 15 50 l13 60 -3 -80 c-1 -44 -1 -68 2 -52 7 41
23 32 23 -13 0 -37 2 -40 28 -40 22 0 33 9 52 40 14 22 28 40 33 40 4 0 7 20
7 45 0 25 4 53 9 63 6 9 15 58 21 107 16 119 26 187 40 260 12 63 15 82 26
180 4 33 10 62 14 65 7 6 39 323 47 468 2 52 9 92 15 92 6 0 9 30 8 78 -4 143
-1 177 12 164 25 -25 88 -1 88 35 0 27 -31 61 -63 68 -18 4 -35 9 -39 10 -5 1
-11 3 -15 4 -5 1 -1 6 7 12 12 8 10 9 -8 4 -16 -5 -30 -1 -43 11 -11 10 -19
12 -19 6 0 -7 -4 -12 -8 -12 -10 0 3 105 18 144 5 15 10 42 10 61 0 49 22 135
34 135 6 0 31 -5 55 -11 55 -12 101 -4 101 19 0 15 2 15 10 2 6 -10 10 -11 10
-2 0 6 7 12 15 12 19 0 19 34 1 53 -9 9 -12 24 -9 37 4 15 2 21 -5 17 -5 -4
-20 8 -31 27 -13 21 -42 44 -76 62 -62 31 -62 30 -44 149 11 72 17 159 43 565
33 519 37 590 36 719 l0 134 30 -39 c17 -21 41 -51 55 -67z m-2655 -41 c0 -57
-7 -66 -56 -66 -24 0 -44 2 -44 4 0 2 -4 26 -10 55 -8 45 -7 55 12 87 l22 37
38 -41 c29 -31 38 -50 38 -76z m1070 -60 c0 -19 -5 -38 -11 -42 -6 -4 -9 -19
-5 -36 10 -49 -3 -77 -45 -99 -22 -10 -39 -23 -39 -28 0 -5 -30 -6 -67 -4 -93
7 -118 -5 -145 -67 -12 -27 -25 -50 -30 -50 -4 0 -8 -6 -8 -14 0 -8 -7 -17
-15 -20 -23 -8 -32 24 -12 39 10 7 17 15 17 19 0 4 9 17 20 29 38 40 53 80 54
146 1 63 2 65 34 78 32 13 34 12 63 -17 56 -55 115 -31 138 58 9 31 17 42 31
42 16 0 20 -7 20 -34z m-912 -20 c31 -1 46 -5 45 -13 -19 -98 -9 -173 23 -173
12 0 5 -11 -22 -34 l-39 -34 -24 37 c-13 20 -32 44 -42 54 -20 19 -70 23 -100
7 -16 -9 -19 -7 -19 14 0 13 -2 30 -5 38 -7 18 66 53 76 36 10 -15 32 1 25 19
-10 24 4 62 20 56 8 -3 35 -6 62 -7z m-488 -71 c0 -41 -81 -135 -115 -135 -36
0 -6 63 59 123 33 30 56 35 56 12z m630 -16 c-7 -11 -14 -18 -17 -15 -3 3 0
12 7 21 18 21 23 19 10 -6z m-424 -34 c7 -19 14 -53 14 -75 l0 -42 -29 24
c-16 13 -36 35 -45 50 -16 26 -16 28 5 53 30 33 37 32 55 -10z m-486 -4 c32
-36 57 -127 70 -262 5 -52 12 -104 15 -116 6 -19 4 -23 -16 -23 -12 0 -33 -10
-46 -21 -20 -20 -23 -20 -29 -5 -3 9 -1 23 6 30 9 12 -1 27 -55 81 -85 85
-122 162 -70 149 18 -5 30 1 51 23 24 26 26 33 22 101 -4 83 6 91 52 43z m875
-1 c-3 -5 -11 -10 -16 -10 -6 0 -7 5 -4 10 3 6 11 10 16 10 6 0 7 -4 4 -10z
m-515 -55 c0 -25 57 -114 82 -131 22 -15 28 -27 28 -57 0 -31 5 -40 26 -49 22
-10 27 -9 35 5 12 21 29 22 29 3 0 -8 5 -16 12 -18 14 -5 -18 -36 -99 -94 -34
-25 -64 -53 -67 -62 -3 -9 -3 11 -1 46 l5 63 -33 -5 c-84 -14 -82 -15 -85 30
-4 52 27 94 68 94 28 0 29 1 18 30 -11 33 -71 80 -100 80 -25 0 -22 10 12 44
16 16 32 38 36 48 6 19 6 19 20 1 7 -10 14 -22 14 -28z m-176 -102 c-5 -5 -12
-12 -16 -18 -4 -6 -8 -2 -8 8 0 9 7 17 17 17 9 0 12 -3 7 -7z m4496 -3 c0 -5
-2 -10 -4 -10 -3 0 -8 5 -11 10 -3 6 -1 10 4 10 6 0 11 -4 11 -10z m-990 -50
c0 -5 -4 -10 -10 -10 -5 0 -10 5 -10 10 0 6 5 10 10 10 6 0 10 -4 10 -10z
m-3420 -5 c0 -2 -9 -20 -20 -40 -25 -44 -28 -135 -5 -135 8 0 15 -4 15 -9 0
-5 11 -12 25 -15 18 -5 23 -11 18 -24 -22 -56 -70 -57 -119 -2 -20 22 -44 40
-53 41 -11 0 -9 3 7 9 12 5 22 16 22 25 0 23 50 117 73 138 19 16 37 22 37 12z
m3423 -22 c-7 -2 -19 -2 -25 0 -7 3 -2 5 12 5 14 0 19 -2 13 -5z m-18 -33 c3
-5 1 -10 -4 -10 -6 0 -11 5 -11 10 0 6 2 10 4 10 3 0 8 -4 11 -10z m-3752
-163 c31 -21 57 -40 57 -42 0 -1 -7 -16 -15 -31 -8 -16 -15 -48 -15 -71 0 -48
-8 -75 -21 -67 -5 3 -21 -4 -35 -15 -33 -26 -45 -26 -94 -1 -45 23 -46 24 -25
73 14 33 11 96 -4 97 -3 1 -19 11 -35 24 -27 23 -28 24 -11 49 12 19 27 27 53
29 59 5 83 -3 145 -45z m4037 -7 c0 -5 -4 -10 -10 -10 -5 0 -10 5 -10 10 0 6
5 10 10 10 6 0 10 -4 10 -10z m910 -34 c0 -2 3 -11 6 -20 4 -10 1 -16 -9 -16
-8 0 -17 9 -20 20 -3 13 0 20 9 20 8 0 14 -2 14 -4z m-4480 -36 c0 -10 -9 -24
-20 -30 -19 -10 -19 -10 -2 20 20 35 22 36 22 10z m3640 5 c16 -19 1 -19 -24
0 -16 12 -17 15 -4 15 8 0 21 -7 28 -15z m-4350 -20 c-14 -17 -40 -20 -40 -5
0 6 9 10 20 10 11 0 20 5 20 12 0 6 3 8 6 5 4 -4 1 -13 -6 -22z m4429 -42 c22
-22 34 -53 20 -53 -5 0 -12 8 -16 18 -3 9 -13 25 -21 35 -8 9 -12 17 -8 17 4
0 15 -8 25 -17z m-3833 -18 c-35 -18 -36 -18 -36 0 0 10 10 15 33 15 l32 0
-29 -15z m148 -31 c4 -11 -7 -31 -31 -58 -21 -22 -49 -54 -61 -71 -26 -33 -34
-28 -52 35 -14 49 -13 60 8 60 10 0 22 3 26 7 7 7 83 40 97 42 4 1 10 -6 13
-15z m-444 -115 c7 -11 9 -24 5 -27 -3 -3 18 -14 47 -23 29 -10 47 -18 41 -18
-9 -1 -13 -19 -13 -54 0 -53 -15 -96 -52 -149 -27 -39 -44 -35 -52 11 -7 45
-32 67 -83 77 -29 5 -33 10 -27 28 10 31 43 77 78 108 26 23 28 27 12 28 -18
0 -18 1 -1 20 23 25 32 25 45 -1z m219 -64 c-6 -45 -5 -71 1 -73 12 -4 13 -72
1 -90 -6 -10 -12 -7 -24 12 -10 14 -17 32 -17 41 0 8 -7 15 -15 15 -10 0 -15
11 -15 35 0 25 -6 37 -22 46 -23 12 -23 13 9 21 18 5 45 21 60 37 15 16 29 28
29 27 1 0 -2 -32 -7 -71z m-404 -4 c3 -5 1 -12 -4 -15 -5 -3 -11 1 -15 9 -6
16 9 21 19 6z m-32 -91 c-3 -11 -9 -20 -14 -20 -10 0 -12 24 -2 33 13 13 21 7
16 -13z m4594 -52 c-3 -8 -6 -5 -6 6 -1 11 2 17 5 13 3 -3 4 -12 1 -19z
m-4468 -79 c19 -34 21 -43 10 -50 -8 -5 -9 -9 -4 -9 15 0 -18 -20 -34 -20 -8
0 -11 6 -7 15 3 8 1 15 -3 15 -5 0 -12 -7 -15 -16 -6 -15 -8 -15 -26 1 -21 19
-27 60 -10 70 6 3 10 -3 10 -14 0 -17 6 -21 29 -21 17 0 33 5 37 11 4 8 -3 9
-25 4 -18 -4 -31 -3 -31 3 0 6 -3 17 -6 25 -5 14 8 22 42 26 6 0 21 -18 33
-40z m4521 -135 c0 -2 -7 -4 -15 -4 -8 0 -15 4 -15 10 0 5 7 7 15 4 8 -4 15
-8 15 -10z m55 -14 c4 -6 -10 -10 -37 -9 -40 1 -41 2 -13 9 43 11 43 11 50 0z
m-25 -36 c0 -8 -4 -12 -10 -9 -5 3 -10 10 -10 16 0 5 5 9 10 9 6 0 10 -7 10
-16z m-4264 -161 c-4 -27 -6 -65 -6 -85 0 -21 -3 -38 -8 -38 -5 0 -8 33 -6 73
3 100 3 97 15 97 8 0 9 -15 5 -47z m4039 -340 c12 -49 14 -63 8 -63 -3 0 -12
8 -20 18 -13 15 -13 15 -3 -6 7 -13 9 -26 6 -29 -8 -8 -26 7 -26 23 0 8 -4 12
-10 9 -14 -9 -13 48 2 63 20 20 35 14 43 -15z m161 -9 c56 -34 77 -54 73 -71
-1 -7 -141 -52 -162 -53 -5 0 -5 9 -2 20 4 12 6 48 6 80 0 42 4 60 13 60 7 0
39 -16 72 -36z m-3483 -36 c18 -13 34 -24 36 -25 12 -7 -25 -33 -40 -28 -9 3
-20 2 -23 -3 -3 -5 15 -17 39 -27 25 -9 45 -20 45 -24 0 -11 77 -61 94 -61 7
0 19 -7 26 -15 7 -8 20 -15 29 -15 30 0 43 -50 47 -184 3 -71 8 -134 13 -140
5 -6 11 -29 14 -51 7 -53 26 -135 37 -160 16 -35 30 -168 26 -235 -2 -36 -4
-76 -5 -89 -1 -20 -3 -21 -16 -11 -13 11 -15 8 -15 -18 0 -49 -17 -46 -29 6
-15 63 -31 194 -25 204 3 4 1 8 -4 8 -5 0 -12 29 -16 66 -7 66 -42 157 -62
161 -17 3 -36 -143 -36 -269 1 -118 4 -113 -63 -108 -16 1 -44 10 -61 21 -17
10 -42 19 -55 19 -22 0 -22 0 -3 15 23 18 17 19 -26 4 -21 -8 -34 -8 -39 -2
-3 6 -22 19 -42 30 -38 20 -109 93 -91 93 6 0 14 -5 17 -11 4 -6 13 -8 21 -5
8 3 14 -1 14 -9 0 -13 12 -14 67 -9 105 9 124 25 174 144 30 70 59 224 58 305
0 26 -2 27 -9 10 -7 -16 -9 -11 -9 22 -1 23 -5 52 -10 65 -5 13 -14 41 -21 63
-16 50 -44 81 -86 95 -28 10 -39 8 -66 -7 -18 -10 -38 -25 -45 -33 -11 -13
-12 -13 -13 4 0 15 -3 16 -15 6 -8 -6 -19 -9 -25 -5 -5 3 -10 -2 -10 -12 -1
-17 -1 -17 -12 1 -10 18 -11 18 -24 -5 l-13 -24 -1 23 c0 52 98 199 126 188 8
-3 11 0 8 9 -4 10 0 12 15 8 15 -4 21 -1 21 10 0 11 6 13 22 9 14 -3 19 -2 14
6 -12 19 12 14 47 -10z m3784 0 c0 -7 4 -21 8 -31 6 -13 3 -16 -9 -11 -16 6
-22 35 -9 47 9 9 10 9 10 -5z m-167 -12 c0 -3 -4 -8 -10 -11 -5 -3 -10 -1 -10
4 0 6 5 11 10 11 6 0 10 -2 10 -4z m25 -25 c3 -5 1 -12 -5 -16 -5 -3 -10 1
-10 9 0 18 6 21 15 7z m-3551 -34 c32 -42 35 -70 4 -37 -13 14 -23 28 -23 32
0 4 -6 13 -14 20 -12 11 -13 10 -8 -4 4 -10 2 -18 -3 -18 -11 0 -13 23 -3 33
12 13 22 7 47 -26z m3586 -62 c0 -14 5 -25 11 -25 5 0 7 -5 4 -11 -5 -6 -12
-4 -21 8 -16 21 -18 53 -4 53 6 0 10 -11 10 -25z m-1523 -87 c-2 -13 -4 -3 -4
22 0 25 2 35 4 23 2 -13 2 -33 0 -45z m1510 20 c-3 -8 -6 -5 -6 6 -1 11 2 17
5 13 3 -3 4 -12 1 -19z m40 -10 c-3 -8 -6 -5 -6 6 -1 11 2 17 5 13 3 -3 4 -12
1 -19z m-1530 -90 c-2 -13 -4 -3 -4 22 0 25 2 35 4 23 2 -13 2 -33 0 -45z
m-20 -5 c-3 -10 -5 -2 -5 17 0 19 2 27 5 18 2 -10 2 -26 0 -35z m1563 27 c0
-5 -5 -10 -11 -10 -5 0 -7 5 -4 10 3 6 8 10 11 10 2 0 4 -4 4 -10z m-33 -32
c-3 -7 -5 -2 -5 12 0 14 2 19 5 13 2 -7 2 -19 0 -25z m-29 -3 c-3 -3 -9 2 -12
12 -6 14 -5 15 5 6 7 -7 10 -15 7 -18z m-1501 -57 c-3 -8 -6 -5 -6 6 -1 11 2
17 5 13 3 -3 4 -12 1 -19z m1590 -20 c-3 -8 -6 -5 -6 6 -1 11 2 17 5 13 3 -3
4 -12 1 -19z m30 -151 c-2 -23 -3 -1 -3 48 0 50 1 68 3 42 2 -26 2 -67 0 -90z
m-20 46 c-3 -10 -5 -2 -5 17 0 19 2 27 5 18 2 -10 2 -26 0 -35z m-10 -130 c-3
-10 -5 -4 -5 12 0 17 2 24 5 18 2 -7 2 -21 0 -30z m-4040 -35 c-3 -8 -6 -5 -6
6 -1 11 2 17 5 13 3 -3 4 -12 1 -19z m4060 -130 c-3 -7 -5 -2 -5 12 0 14 2 19
5 13 2 -7 2 -19 0 -25z m-1760 -100 c-3 -8 -6 -5 -6 6 -1 11 2 17 5 13 3 -3 4
-12 1 -19z m1740 -105 c-3 -10 -5 -4 -5 12 0 17 2 24 5 18 2 -7 2 -21 0 -30z
m-100 -115 c-3 -8 -6 -5 -6 6 -1 11 2 17 5 13 3 -3 4 -12 1 -19z m10 -75 c-3
-10 -5 -4 -5 12 0 17 2 24 5 18 2 -7 2 -21 0 -30z m-4300 -155 c-2 -13 -4 -3
-4 22 0 25 2 35 4 23 2 -13 2 -33 0 -45z m2530 -200 c-3 -8 -6 -5 -6 6 -1 11
2 17 5 13 3 -3 4 -12 1 -19z m-2447 -270 c0 -5 -4 -8 -10 -8 -5 0 -10 10 -10
23 0 18 2 19 10 7 5 -8 10 -18 10 -22z m840 -316 c0 -13 -12 -22 -22 -16 -10
6 -1 24 13 24 5 0 9 -4 9 -8z m1310 -792 c10 0 35 -10 55 -21 20 -12 53 -28
73 -35 l37 -13 -31 -1 c-18 0 -45 7 -60 15 -16 8 -37 15 -46 15 -10 0 -18 5
-18 10 0 6 -8 10 -18 10 -21 0 -56 33 -46 43 4 3 13 0 21 -8 8 -8 23 -15 33
-15z m187 -86 c-3 -3 -12 -4 -19 -1 -8 3 -5 6 6 6 11 1 17 -2 13 -5z m-255
-11 c5 -14 111 -60 173 -78 33 -9 69 -20 80 -25 106 -46 315 -43 375 6 20 16
142 64 163 64 13 0 17 -9 17 -34 l0 -33 -58 -6 c-65 -5 -96 -20 -110 -52 -18
-40 56 -78 111 -57 17 6 33 10 36 8 3 -2 4 -33 1 -68 -3 -34 -2 -83 2 -108 4
-25 12 -83 18 -130 15 -118 67 -275 97 -291 12 -7 20 -16 17 -21 -11 -17 8
-48 30 -48 12 0 27 -5 32 -10 8 -8 15 -6 25 6 8 10 9 15 3 11 -13 -8 -51 30
-40 40 4 4 10 3 14 -2 4 -6 19 -16 35 -22 32 -15 34 -27 6 -39 -19 -9 -17 -12
26 -34 26 -14 57 -37 68 -52 26 -36 38 -35 59 2 14 24 14 30 3 30 -7 0 -15 -6
-18 -12 -3 -8 -18 1 -41 25 -20 20 -42 37 -48 37 -6 0 -9 2 -7 5 8 8 79 -15
79 -25 0 -13 57 -13 65 0 3 6 18 7 33 4 15 -4 24 -3 20 1 -12 13 12 35 38 35
29 0 54 -44 53 -92 0 -18 -3 -26 -6 -18 -14 35 -31 42 -58 23 -19 -14 -24 -27
-25 -60 0 -24 -4 -43 -10 -43 -5 0 -10 17 -10 38 0 36 -14 62 -33 62 -5 0 -7
-7 -3 -15 3 -10 -3 -17 -19 -21 -27 -7 -36 -44 -11 -44 18 0 66 -43 66 -59 0
-6 9 -11 19 -11 28 0 36 -30 8 -31 l-22 0 23 -11 c12 -6 22 -19 22 -28 0 -24
24 -32 47 -15 10 8 20 15 23 15 12 0 58 -47 61 -64 5 -23 26 -32 32 -14 2 7 3
6 2 -3 -2 -17 27 -49 44 -49 13 0 23 -33 12 -40 -6 -3 -7 -17 -4 -30 6 -22 7
-22 14 -4 7 19 7 19 15 -1 4 -11 25 -46 45 -78 21 -32 40 -71 44 -87 3 -15 13
-31 21 -34 8 -3 14 -13 13 -23 0 -16 -1 -16 -9 2 -7 16 -9 12 -9 -20 0 -22 -3
-69 -7 -105 -5 -57 -3 -68 16 -93 12 -15 41 -37 65 -48 24 -11 45 -29 48 -40
3 -10 21 -26 41 -34 25 -11 37 -23 41 -43 4 -15 10 -35 16 -44 5 -10 9 -28 9
-40 0 -62 42 -193 76 -240 34 -45 35 -51 24 -79 -15 -34 -5 -52 14 -26 7 9 24
17 37 17 16 0 30 10 41 28 17 26 17 26 18 5 0 -13 -9 -28 -20 -35 -11 -7 -20
-17 -20 -22 0 -5 -15 -23 -33 -41 -76 -73 -110 -264 -70 -380 19 -52 90 -135
117 -135 8 0 18 -9 21 -21 4 -11 19 -42 35 -67 22 -38 30 -68 40 -159 15 -131
8 -192 -24 -225 -32 -32 -48 -65 -36 -73 5 -3 15 -3 20 0 6 3 10 1 10 -4 0 -6
-4 -11 -10 -11 -5 0 -10 -12 -10 -27 0 -16 -7 -64 -15 -108 -8 -44 -14 -104
-15 -133 0 -50 -2 -55 -47 -95 -25 -23 -72 -65 -102 -93 -31 -28 -99 -88 -151
-134 -95 -83 -157 -139 -282 -257 -55 -53 -72 -63 -101 -63 -59 0 -366 115
-375 141 -2 5 -10 9 -18 9 -8 0 -14 7 -14 15 0 11 7 14 28 10 26 -5 26 -5 3 5
-13 6 -26 9 -28 7 -5 -6 -73 60 -73 72 0 6 8 8 18 5 14 -5 15 -4 2 5 -18 13
-47 14 -52 2 -1 -5 -28 20 -58 55 -30 34 -60 63 -67 63 -6 1 -28 16 -48 35
-24 23 -43 33 -58 30 -20 -4 -20 -3 -3 4 24 10 6 25 -18 16 -11 -4 -15 -2 -11
7 5 15 -52 57 -85 62 -11 2 -23 6 -26 10 -4 4 -14 7 -21 7 -18 0 -46 29 -61
63 -15 35 -16 314 -1 377 6 25 11 106 12 180 2 130 1 137 -27 194 -45 92 -114
156 -232 215 -91 46 -124 58 -162 60 -25 2 -90 161 -108 266 -9 55 -30 140
-46 189 -15 49 -28 94 -28 100 0 20 -41 90 -95 161 -29 39 -60 85 -70 104 -38
74 -113 115 -213 116 -80 0 -77 -3 -86 80 -3 34 -2 42 4 25 8 -25 8 -25 9 -2
1 13 6 20 11 17 6 -3 10 3 10 14 0 10 -6 22 -12 24 -7 3 -3 6 10 6 19 1 22 -4
22 -38 0 -45 17 -65 41 -48 10 8 18 34 22 72 9 92 25 168 37 175 6 4 12 27 13
52 2 26 9 53 16 62 16 19 41 101 41 135 0 14 7 39 15 55 8 15 15 44 15 62 0
29 3 34 24 34 23 0 24 4 31 80 4 44 12 80 17 80 10 0 6 -89 -8 -167 -5 -25 -2
-34 10 -39 25 -10 30 2 28 62 -2 36 2 56 10 59 19 8 21 242 2 249 -8 3 -14 17
-14 31 0 14 -4 25 -9 25 -5 0 -12 7 -15 16 -3 8 -2 13 3 10 9 -6 21 16 21 37
0 8 -4 7 -9 -2 -7 -11 -10 -9 -16 8 -4 13 -4 25 -1 28 3 4 6 1 6 -5 0 -7 7
-12 15 -12 18 0 19 12 3 28 -9 9 -10 15 -2 20 7 4 19 27 27 52 8 25 32 86 52
135 21 50 46 115 56 145 37 107 89 200 89 158 0 -18 55 -53 125 -80 54 -20 77
-23 220 -23 163 0 279 17 272 39 -2 6 -30 12 -63 13 -141 6 -240 17 -259 29
-11 6 -36 15 -55 19 -19 4 -54 16 -77 26 -23 11 -47 19 -53 19 -6 0 -22 7 -36
16 -20 14 -30 15 -50 5 -25 -11 -26 -11 -19 21 4 18 11 35 16 36 5 2 9 10 9
18 0 15 16 20 22 7z m958 -333 c12 -8 11 -10 -7 -10 -13 0 -23 5 -23 10 0 13
11 13 30 0z m-2093 -122 c-2 -24 -4 -7 -4 37 0 44 2 63 4 43 2 -21 2 -57 0
-80z m794 -329 c-12 -19 -21 -30 -21 -26 0 12 33 67 38 63 1 -2 -6 -19 -17
-37z m39 -29 c0 -5 -5 -10 -11 -10 -5 0 -7 5 -4 10 3 6 8 10 11 10 2 0 4 -4 4
-10z m-86 -62 c-4 -25 -3 -29 5 -18 13 19 14 0 1 -20 -7 -11 -10 -11 -10 -2 0
25 -20 1 -21 -26 -2 -24 -2 -25 -6 -4 -3 13 0 28 5 35 5 7 12 24 16 40 9 38
17 34 10 -5z m34 -3 c-3 -3 -9 2 -12 12 -6 14 -5 15 5 6 7 -7 10 -15 7 -18z
m85 -79 c3 -30 1 -43 -4 -35 -5 8 -8 34 -8 59 1 53 6 44 12 -24z m-91 4 c-2
-16 -6 -30 -8 -30 -2 0 -4 14 -4 30 0 17 4 30 8 30 5 0 7 -13 4 -30z m-35 -22
c-3 -8 -6 -5 -6 6 -1 11 2 17 5 13 3 -3 4 -12 1 -19z m-51 -88 c-9 -22 -16
-49 -16 -60 0 -31 20 -24 21 8 0 15 3 21 6 14 3 -7 2 -25 -2 -39 -5 -22 -8
-24 -20 -12 -19 20 -32 75 -15 64 10 -6 12 -3 8 13 -4 12 -2 22 2 22 5 0 12 9
15 21 4 11 9 18 12 15 3 -3 -2 -23 -11 -46z m-19 -134 c-2 -6 -12 6 -21 28 -9
21 -13 43 -9 49 7 12 35 -61 30 -77z m1851 42 c-3 -7 -11 -13 -18 -13 -7 0
-15 6 -17 13 -3 7 4 12 17 12 13 0 20 -5 18 -12z m-58 -8 c0 -5 -5 -10 -11
-10 -5 0 -7 5 -4 10 3 6 8 10 11 10 2 0 4 -4 4 -10z m-1816 -59 c-7 -9 -24 13
-24 32 0 21 1 21 13 -3 8 -14 12 -27 11 -29z m-30 -39 c-3 -58 -3 -62 -13 -62
-5 0 -12 7 -15 16 -4 11 -2 15 8 11 11 -4 13 3 9 34 -3 21 -2 39 3 39 5 0 8
-17 8 -38z m-32 -94 c-7 -7 -12 -8 -12 -2 0 6 3 14 7 17 3 4 9 5 12 2 2 -3 -1
-11 -7 -17z m19 -35 c-12 -20 -14 -14 -5 12 4 9 9 14 11 11 3 -2 0 -13 -6 -23z
m-24 -55 c-2 -13 -4 -3 -4 22 0 25 2 35 4 23 2 -13 2 -33 0 -45z m40 10 c-3
-8 -6 -5 -6 6 -1 11 2 17 5 13 3 -3 4 -12 1 -19z m-60 -20 c-3 -7 -5 -2 -5 12
0 14 2 19 5 13 2 -7 2 -19 0 -25z m-27 -125 c-4 -42 -5 -44 -8 -15 -3 30 2 62
10 62 2 0 1 -21 -2 -47z m-895 7 c-3 -5 -10 -10 -16 -10 -5 0 -9 5 -9 10 0 6
7 10 16 10 8 0 12 -4 9 -10z m3266 -224 c5 -31 4 -35 -7 -24 -7 7 -16 26 -20
42 -5 22 -4 28 7 24 8 -3 17 -21 20 -42z m-4180 -677 c-9 -22 -10 -22 -10 -3
-1 11 2 24 6 27 12 12 14 0 4 -24z m4556 -1131 c-2 -13 -4 -3 -4 22 0 25 2 35
4 23 2 -13 2 -33 0 -45z m6 -173 c4 -8 2 -17 -3 -20 -6 -4 -10 3 -10 14 0 25
6 27 13 6z m-2 -76 c-9 -22 -10 -22 -10 -3 -1 11 2 24 6 27 12 12 14 0 4 -24z
m-1614 -91 c-3 -8 -6 -5 -6 6 -1 11 2 17 5 13 3 -3 4 -12 1 -19z m43 2 c0 -5
-4 -10 -10 -10 -5 0 -10 5 -10 10 0 6 5 10 10 10 6 0 10 -4 10 -10z m20 -31
c0 -5 -9 -9 -19 -9 -11 0 -22 4 -25 9 -3 5 6 9 19 9 14 0 25 -4 25 -9z m26
-105 c47 -27 50 -50 5 -39 -30 8 -48 21 -62 47 -14 26 3 23 57 -8z m1515 -102
c-6 -2 -11 -12 -11 -22 0 -10 -4 -22 -10 -25 -5 -3 -10 -2 -10 4 0 5 -3 16 -6
25 -4 11 -1 16 10 16 9 0 16 4 16 8 0 18 -13 20 -36 5 -30 -19 -31 -10 -2 17
12 11 28 18 35 16 8 -3 14 3 15 17 1 12 3 4 5 -18 3 -23 0 -41 -6 -43z m-1420
41 c13 -15 12 -15 -6 -6 -11 6 -27 13 -35 16 -10 4 -8 6 6 6 12 1 28 -6 35
-16z m139 -158 c0 -5 -5 -3 -10 5 -5 8 -10 20 -10 25 0 6 5 3 10 -5 5 -8 10
-19 10 -25z m1405 -66 c-4 -13 -2 -25 5 -29 10 -6 9 -12 -2 -29 -14 -20 -15
-18 -17 29 -1 30 3 50 9 50 7 0 9 -8 5 -21z m-151 -54 c5 -22 4 -26 -4 -15 -5
8 -10 24 -10 34 0 26 6 18 14 -19z"/>
<path d="M5916 9105 c4 -8 8 -15 10 -15 2 0 4 7 4 15 0 8 -4 15 -10 15 -5 0
-7 -7 -4 -15z"/>
<path d="M6400 8668 c0 -9 5 -20 11 -23 17 -11 18 -2 3 19 -12 17 -14 17 -14
4z"/>
<path d="M6566 8494 c-5 -14 -4 -15 9 -4 17 14 19 20 6 20 -5 0 -12 -7 -15
-16z"/>
<path d="M6518 8473 c7 -3 16 -2 19 1 4 3 -2 6 -13 5 -11 0 -14 -3 -6 -6z"/>
<path d="M6551 8444 c0 -11 3 -14 6 -6 3 7 2 16 -1 19 -3 4 -6 -2 -5 -13z"/>
<path d="M6535 8380 c10 -11 20 -18 23 -15 7 6 -18 35 -31 35 -5 0 -2 -9 8
-20z"/>
<path d="M6855 7670 c3 -5 8 -10 11 -10 2 0 4 5 4 10 0 6 -5 10 -11 10 -5 0
-7 -4 -4 -10z"/>
<path d="M5976 7532 c-36 -59 -61 -300 -46 -444 13 -122 71 -270 135 -343 55
-62 122 -131 154 -158 33 -28 34 -29 28 -92 -6 -68 -27 -127 -55 -158 -9 -10
-37 -28 -62 -39 -63 -28 -80 -46 -80 -83 0 -40 14 -52 65 -60 43 -7 76 4 137
45 34 23 46 42 79 128 12 30 11 124 -1 156 -7 20 -6 24 4 20 32 -12 21 17 -40
106 -35 51 -64 98 -64 102 0 5 -9 18 -19 29 -11 12 -22 33 -26 47 -4 15 -10
29 -13 32 -4 3 -26 43 -49 90 -46 93 -71 177 -74 255 -1 28 -6 55 -10 60 -4 6
-9 73 -10 150 -2 77 -7 146 -12 153 -11 14 -33 16 -41 4z"/>
<path d="M5398 7513 c7 -3 16 -2 19 1 4 3 -2 6 -13 5 -11 0 -14 -3 -6 -6z"/>
<path d="M5825 6308 c-39 -21 -85 -72 -85 -93 0 -26 29 -55 56 -55 25 1 51 16
108 64 47 40 56 62 34 84 -15 15 -86 15 -113 0z"/>
<path d="M6730 5860 c0 -11 4 -20 9 -20 5 0 7 9 4 20 -3 11 -7 20 -9 20 -2 0
-4 -9 -4 -20z"/>
<path d="M6715 5809 c-9 -28 -2 -33 13 -9 6 11 8 21 3 25 -5 3 -13 -4 -16 -16z"/>
<path d="M5901 5795 c-30 -8 -74 -24 -99 -35 -24 -11 -51 -20 -59 -20 -8 0
-27 -7 -42 -16 -26 -15 -31 -15 -92 10 -79 32 -96 32 -104 5 -45 -140 461
-211 737 -103 62 25 128 72 128 92 0 7 -108 47 -170 62 -72 18 -242 21 -299 5z"/>
<path d="M6687 5747 c-4 -10 -7 -26 -7 -35 1 -15 2 -15 11 1 6 10 9 25 7 35
-3 16 -4 15 -11 -1z"/>
<path d="M6652 5720 c0 -14 2 -19 5 -12 2 6 2 18 0 25 -3 6 -5 1 -5 -13z"/>
<path d="M5925 5468 c-44 -24 -65 -52 -65 -85 0 -45 38 -56 82 -23 17 12 42
26 57 29 32 9 40 45 15 72 -19 21 -58 24 -89 7z"/>
<path d="M2185 8260 c4 -6 11 -8 16 -5 14 9 11 15 -7 15 -8 0 -12 -5 -9 -10z"/>
<path d="M3170 7480 c0 -5 7 -10 15 -10 8 0 15 5 15 10 0 6 -7 10 -15 10 -8 0
-15 -4 -15 -10z"/>
<path d="M3218 7483 c7 -3 16 -2 19 1 4 3 -2 6 -13 5 -11 0 -14 -3 -6 -6z"/>
<path d="M3400 7300 c0 -5 10 -10 23 -10 18 0 19 2 7 10 -19 13 -30 13 -30 0z"/>
<path d="M3451 7263 c1 -10 5 -29 9 -43 6 -20 8 -17 6 17 0 24 -4 43 -8 43 -5
0 -8 -8 -7 -17z"/>
<path d="M3040 6626 c0 -2 7 -6 15 -10 8 -3 15 -1 15 4 0 6 -7 10 -15 10 -8 0
-15 -2 -15 -4z"/>
<path d="M3105 6620 c3 -5 10 -10 16 -10 5 0 9 5 9 10 0 6 -7 10 -16 10 -8 0
-12 -4 -9 -10z"/>
<path d="M3138 6583 c7 -3 16 -2 19 1 4 3 -2 6 -13 5 -11 0 -14 -3 -6 -6z"/>
<path d="M5760 3564 c0 -8 5 -12 10 -9 6 3 10 10 10 16 0 5 -4 9 -10 9 -5 0
-10 -7 -10 -16z"/>
<path d="M4407 3253 c7 -60 24 -83 47 -60 17 17 22 87 6 87 -5 0 -10 -18 -10
-40 0 -56 -18 -50 -22 7 -2 25 -8 48 -14 50 -8 3 -10 -11 -7 -44z"/>
<path d="M6240 3170 c0 -5 5 -10 11 -10 5 0 7 5 4 10 -3 6 -8 10 -11 10 -2 0
-4 -4 -4 -10z"/>
<path d="M4404 3081 c4 -24 11 -51 16 -60 17 -29 11 44 -6 75 l-16 29 6 -44z"/>
<path d="M4142 2690 c0 -14 2 -19 5 -12 2 6 2 18 0 25 -3 6 -5 1 -5 -13z"/>
<path d="M6739 1102 c-19 -15 -66 -60 -103 -99 -47 -51 -76 -73 -92 -73 -15 0
-29 -10 -38 -27 -13 -24 -15 -25 -16 -8 -1 18 -2 18 -10 -2 -5 -13 -15 -23
-21 -23 -8 0 -9 -11 -6 -32 6 -33 6 -33 -10 -10 -20 28 -29 28 -37 -1 -3 -13
-23 -33 -46 -46 -23 -13 -44 -30 -48 -40 -3 -9 -16 -24 -29 -34 -13 -10 -23
-25 -23 -33 0 -8 -9 -14 -20 -14 -11 0 -20 -4 -20 -10 0 -5 8 -10 18 -10 13 0
11 -4 -8 -14 -20 -11 -27 -11 -36 0 -7 9 -21 10 -45 5 -19 -4 -132 -8 -253 -9
-140 0 -223 -5 -229 -11 -16 -16 -37 -13 -31 4 4 9 1 15 -7 15 -7 0 -49 17
-93 37 -55 26 -81 34 -84 25 -2 -6 -13 -12 -25 -13 -15 0 -17 -2 -7 -6 8 -3
19 -12 23 -19 4 -8 18 -15 30 -15 18 -1 18 -2 4 -6 -10 -3 -23 0 -30 5 -7 5
-45 15 -84 22 -40 7 -73 16 -73 20 0 7 -41 3 -70 -7 -15 -5 51 -33 79 -33 23
0 218 -97 329 -163 57 -34 136 -89 176 -122 221 -182 270 -215 318 -215 23 0
6 19 -149 172 -46 45 -81 84 -78 86 2 3 11 -1 20 -8 8 -7 25 -10 40 -6 15 4
25 2 25 -4 0 -6 -4 -8 -10 -5 -5 3 -10 1 -10 -4 0 -6 11 -11 24 -11 41 0 56
-11 56 -39 0 -32 41 -78 92 -105 39 -19 68 -16 68 7 0 8 6 20 14 26 8 7 23 29
34 49 18 35 207 316 286 427 20 28 44 64 53 82 10 17 29 46 43 63 14 18 39 56
55 85 17 29 49 80 73 114 45 65 39 77 -19 33z m-199 -197 c-7 -9 -15 -13 -17
-11 -7 7 7 26 19 26 6 0 6 -6 -2 -15z m-110 -95 c0 -5 -4 -10 -10 -10 -5 0
-10 5 -10 10 0 6 5 10 10 10 6 0 10 -4 10 -10z m-80 -94 c0 -11 -19 -15 -25
-6 -3 5 1 10 9 10 9 0 16 -2 16 -4z m30 -26 c0 -5 -5 -10 -11 -10 -5 0 -7 5
-4 10 3 6 8 10 11 10 2 0 4 -4 4 -10z m-840 -50 c18 -12 2 -12 -25 0 -13 6
-15 9 -5 9 8 0 22 -4 30 -9z m783 -12 c9 -31 2 -33 -11 -3 -6 14 -8 25 -3 25
5 0 11 -10 14 -22z m-715 -23 c-3 -3 -9 2 -12 12 -6 14 -5 15 5 6 7 -7 10 -15
7 -18z m684 13 c12 -9 15 -22 11 -40 -7 -36 -22 -36 -20 -2 1 15 -4 29 -12 32
-10 3 -13 -2 -9 -22 6 -30 -6 -35 -21 -8 -6 9 -11 12 -11 6 0 -6 7 -17 15 -24
28 -23 0 -32 -117 -38 -178 -10 -257 -6 -276 11 -10 9 -40 17 -67 20 -45 3
-43 4 17 5 40 1 68 -2 70 -9 7 -20 160 -23 224 -5 33 10 66 22 74 27 8 5 23
12 33 15 9 4 17 11 17 16 0 6 7 7 15 4 9 -3 18 1 21 9 7 18 15 19 36 3z m-712
-19 l35 -20 -30 6 c-16 4 -37 13 -45 21 -20 20 -1 17 40 -7z m105 -19 c-3 -5
-11 -10 -16 -10 -6 0 -7 5 -4 10 3 6 11 10 16 10 6 0 7 -4 4 -10z m-18 -26
c-6 -6 -47 9 -47 17 0 5 11 3 25 -3 14 -6 24 -13 22 -14z m53 16 c0 -5 -4 -10
-10 -10 -5 0 -10 5 -10 10 0 6 5 10 10 10 6 0 10 -4 10 -10z m531 -73 c-6 -8
-9 -16 -6 -19 3 -2 -2 -5 -9 -5 -11 0 -13 5 -5 19 5 10 15 18 21 18 7 0 7 -4
-1 -13z m-324 -3 c-3 -3 -12 -4 -19 -1 -8 3 -5 6 6 6 11 1 17 -2 13 -5z m-120
-20 c-3 -3 -12 -4 -19 -1 -8 3 -5 6 6 6 11 1 17 -2 13 -5z m28 -24 c3 -5 2
-10 -4 -10 -5 0 -13 5 -16 10 -3 6 -2 10 4 10 5 0 13 -4 16 -10z m155 0 c0 -5
-4 -10 -10 -10 -5 0 -10 5 -10 10 0 6 5 10 10 10 6 0 10 -4 10 -10z m123 3
c-13 -2 -33 -2 -45 0 -13 2 -3 4 22 4 25 0 35 -2 23 -4z m-227 -40 c-7 -7 -26
7 -26 19 0 6 6 6 15 -2 9 -7 13 -15 11 -17z m161 21 c-3 -3 -12 -4 -19 -1 -8
3 -5 6 6 6 11 1 17 -2 13 -5z m98 -103 l40 -9 -35 0 c-19 0 -46 4 -60 8 -20 6
-21 8 -5 8 11 1 38 -3 60 -7z"/>
<path d="M6580 1056 c0 -9 5 -16 10 -16 6 0 10 4 10 9 0 6 -4 13 -10 16 -5 3
-10 -1 -10 -9z"/>
<path d="M5393 707 c5 -17 43 -21 49 -5 4 9 -4 14 -24 15 -19 2 -28 -2 -25
-10z"/>
<path d="M5486 491 c-4 -5 3 -7 14 -4 23 6 26 13 6 13 -8 0 -17 -4 -20 -9z"/>
<path d="M5564 420 c0 -24 11 -26 20 -4 8 22 8 24 -7 24 -7 0 -13 -9 -13 -20z"/>
<path d="M5617 414 c-4 -4 -7 -14 -7 -23 0 -11 3 -12 11 -4 6 6 10 16 7 23 -2
6 -7 8 -11 4z"/>
<path d="M5651 366 c-10 -12 -8 -13 8 -9 12 3 21 9 21 14 0 14 -16 11 -29 -5z"/>
<path d="M6508 10788 c9 -9 15 -9 24 0 9 9 7 12 -12 12 -19 0 -21 -3 -12 -12z"/>
<path d="M3600 10762 c0 -5 7 -13 16 -16 10 -4 14 -1 12 6 -5 15 -28 23 -28
10z"/>
<path d="M3605 10719 c-11 -16 -1 -19 13 -3 7 8 8 14 3 14 -5 0 -13 -5 -16
-11z"/>
<path d="M5721 10704 c0 -11 3 -14 6 -6 3 7 2 16 -1 19 -3 4 -6 -2 -5 -13z"/>
<path d="M6620 10710 c0 -5 5 -10 10 -10 6 0 10 5 10 10 0 6 -4 10 -10 10 -5
0 -10 -4 -10 -10z"/>
<path d="M6590 10680 c0 -5 5 -10 10 -10 6 0 10 5 10 10 0 6 -4 10 -10 10 -5
0 -10 -4 -10 -10z"/>
<path d="M3528 10633 c7 -3 16 -2 19 1 4 3 -2 6 -13 5 -11 0 -14 -3 -6 -6z"/>
<path d="M6615 10550 c-3 -5 1 -10 9 -10 9 0 16 5 16 10 0 6 -4 10 -9 10 -6 0
-13 -4 -16 -10z"/>
<path d="M6750 10540 c0 -5 5 -10 11 -10 5 0 7 5 4 10 -3 6 -8 10 -11 10 -2 0
-4 -4 -4 -10z"/>
<path d="M6825 10460 c-4 -6 7 -10 27 -10 25 0 29 3 18 10 -19 13 -37 13 -45
0z"/>
<path d="M6860 10420 c0 -5 5 -10 10 -10 6 0 10 5 10 10 0 6 -4 10 -10 10 -5
0 -10 -4 -10 -10z"/>
<path d="M7176 10385 c-3 -9 0 -15 9 -15 8 0 15 7 15 15 0 8 -4 15 -9 15 -5 0
-11 -7 -15 -15z"/>
<path d="M7078 10383 c7 -3 16 -2 19 1 4 3 -2 6 -13 5 -11 0 -14 -3 -6 -6z"/>
<path d="M3520 10371 c0 -13 29 -35 37 -28 7 8 -15 37 -28 37 -5 0 -9 -4 -9
-9z"/>
<path d="M3521 10305 c-1 -37 13 -64 22 -42 3 8 2 18 -3 23 -4 5 -10 18 -13
29 -3 14 -5 11 -6 -10z"/>
<path d="M7170 10303 c0 -8 4 -12 9 -8 5 3 12 -5 14 -17 3 -18 5 -16 6 8 1 21
-4 31 -14 31 -8 0 -15 -7 -15 -14z"/>
<path d="M7172 10240 c0 -19 2 -27 5 -17 2 9 2 25 0 35 -3 9 -5 1 -5 -18z"/>
<path d="M3460 10224 c0 -8 5 -12 10 -9 6 3 10 10 10 16 0 5 -4 9 -10 9 -5 0
-10 -7 -10 -16z"/>
<path d="M3043 10120 c0 -25 2 -35 4 -22 2 12 2 32 0 45 -2 12 -4 2 -4 -23z"/>
<path d="M3080 10120 c0 -22 5 -40 10 -40 6 0 10 18 10 40 0 22 -4 40 -10 40
-5 0 -10 -18 -10 -40z"/>
<path d="M3120 10144 c0 -14 3 -14 15 -4 8 7 15 14 15 16 0 2 -7 4 -15 4 -8 0
-15 -7 -15 -16z"/>
<path d="M3368 10153 c7 -3 16 -2 19 1 4 3 -2 6 -13 5 -11 0 -14 -3 -6 -6z"/>
<path d="M7200 10151 c0 -6 5 -13 10 -16 6 -3 10 1 10 9 0 9 -4 16 -10 16 -5
0 -10 -4 -10 -9z"/>
<path d="M7263 10095 c0 -8 4 -15 9 -15 4 0 8 7 8 15 0 8 -4 15 -8 15 -5 0 -9
-7 -9 -15z"/>
<path d="M2740 10038 c-5 -43 -3 -48 15 -48 13 0 16 3 8 8 -6 4 -13 25 -15 47
l-3 40 -5 -47z"/>
<path d="M2800 10069 c0 -5 5 -7 10 -4 6 3 10 8 10 11 0 2 -4 4 -10 4 -5 0
-10 -5 -10 -11z"/>
<path d="M3306 10065 c4 -8 10 -12 15 -9 11 6 2 24 -11 24 -5 0 -7 -7 -4 -15z"/>
<path d="M7340 10070 c0 -5 5 -10 10 -10 6 0 10 5 10 10 0 6 -4 10 -10 10 -5
0 -10 -4 -10 -10z"/>
<path d="M7320 10021 c0 -5 5 -13 10 -16 6 -3 10 -2 10 4 0 5 -4 13 -10 16 -5
3 -10 2 -10 -4z"/>
<path d="M2865 10010 c-3 -5 -1 -10 4 -10 6 0 11 5 11 10 0 6 -2 10 -4 10 -3
0 -8 -4 -11 -10z"/>
<path d="M2515 9990 c-3 -5 -1 -10 4 -10 6 0 11 5 11 10 0 6 -2 10 -4 10 -3 0
-8 -4 -11 -10z"/>
<path d="M2608 9993 c7 -3 16 -2 19 1 4 3 -2 6 -13 5 -11 0 -14 -3 -6 -6z"/>
<path d="M2963 9985 c-8 -23 0 -24 20 -3 14 15 15 18 2 18 -9 0 -18 -7 -22
-15z"/>
<path d="M3012 9973 c-15 -16 -33 -36 -41 -45 -25 -32 -2 -19 45 27 25 25 41
45 35 45 -6 0 -24 -12 -39 -27z"/>
<path d="M2980 9889 c0 -11 -4 -17 -10 -14 -5 3 -10 -3 -10 -14 0 -12 7 -21
15 -21 10 0 15 11 15 35 0 19 -2 35 -5 35 -3 0 -5 -9 -5 -21z"/>
<path d="M2508 9850 c2 -16 6 -30 8 -30 2 0 4 14 4 30 0 17 -4 30 -8 30 -5 0
-7 -13 -4 -30z"/>
<path d="M2347 9843 c-10 -9 -9 -23 2 -23 5 0 11 7 15 15 5 15 -5 20 -17 8z"/>
<path d="M2843 9825 c-6 -14 -9 -25 -6 -25 7 0 32 33 33 43 0 16 -16 5 -27
-18z"/>
<path d="M2340 9770 c0 -5 5 -10 10 -10 6 0 10 5 10 10 0 6 -4 10 -10 10 -5 0
-10 -4 -10 -10z"/>
<path d="M2951 9754 c0 -11 3 -14 6 -6 3 7 2 16 -1 19 -3 4 -6 -2 -5 -13z"/>
<path d="M7380 9540 c0 -5 -9 -10 -20 -10 -11 0 -20 -5 -20 -11 0 -6 7 -8 16
-5 9 3 24 6 35 6 10 0 19 7 19 15 0 8 -7 15 -15 15 -8 0 -15 -4 -15 -10z"/>
<path d="M2410 9429 c0 -5 5 -7 10 -4 6 3 10 8 10 11 0 2 -4 4 -10 4 -5 0 -10
-5 -10 -11z"/>
<path d="M2391 9401 c-8 -6 -9 -11 -3 -15 6 -3 14 -1 17 5 9 14 2 20 -14 10z"/>
<path d="M2095 9350 c3 -5 8 -10 11 -10 2 0 4 5 4 10 0 6 -5 10 -11 10 -5 0
-7 -4 -4 -10z"/>
<path d="M7340 9290 c0 -5 5 -10 10 -10 6 0 10 5 10 10 0 6 -4 10 -10 10 -5 0
-10 -4 -10 -10z"/>
<path d="M7316 9215 c-3 -8 -1 -15 4 -15 6 0 10 7 10 15 0 8 -2 15 -4 15 -2 0
-6 -7 -10 -15z"/>
<path d="M2043 9160 c0 -25 2 -35 4 -22 2 12 2 32 0 45 -2 12 -4 2 -4 -23z"/>
<path d="M2012 9150 c0 -19 2 -27 5 -17 2 9 2 25 0 35 -3 9 -5 1 -5 -18z"/>
<path d="M7050 9130 c0 -5 5 -10 10 -10 6 0 10 5 10 10 0 6 -4 10 -10 10 -5 0
-10 -4 -10 -10z"/>
<path d="M7170 9110 c-8 -5 -31 -10 -50 -10 -44 0 -80 -10 -80 -21 0 -4 32
-11 70 -15 39 -3 70 -11 70 -15 0 -5 5 -9 10 -9 6 0 10 7 10 16 0 8 7 22 15
30 8 9 15 20 15 25 0 12 -41 11 -60 -1z"/>
<path d="M7271 9104 c0 -11 3 -14 6 -6 3 7 2 16 -1 19 -3 4 -6 -2 -5 -13z"/>
<path d="M7091 9015 c0 -5 6 -19 14 -29 8 -11 15 -15 15 -10 0 6 -7 19 -15 30
-8 10 -14 15 -14 9z"/>
<path d="M2010 8950 c-8 -5 -12 -11 -9 -14 3 -3 14 1 25 9 21 16 8 20 -16 5z"/>
<path d="M7220 8865 c0 -8 2 -15 4 -15 2 0 6 7 10 15 3 8 1 15 -4 15 -6 0 -10
-7 -10 -15z"/>
<path d="M7246 8815 c-3 -8 -1 -15 4 -15 6 0 10 7 10 15 0 8 -2 15 -4 15 -2 0
-6 -7 -10 -15z"/>
<path d="M1840 8785 c0 -8 7 -15 15 -15 8 0 15 7 15 15 0 8 -7 15 -15 15 -8 0
-15 -7 -15 -15z"/>
<path d="M1920 8666 c0 -8 5 -18 10 -21 6 -3 10 1 10 9 0 8 -4 18 -10 21 -5 3
-10 -1 -10 -9z"/>
<path d="M1932 8605 c6 -14 17 -25 25 -25 11 0 10 5 -3 25 -9 14 -20 25 -25
25 -5 0 -3 -11 3 -25z"/>
<path d="M7300 8600 c0 -16 7 -20 30 -20 23 0 30 4 30 20 0 16 -7 20 -30 20
-23 0 -30 -4 -30 -20z"/>
<path d="M2437 8213 c-4 -3 -7 -11 -7 -17 0 -6 5 -5 12 2 6 6 9 14 7 17 -3 3
-9 2 -12 -2z"/>
<path d="M2399 8198 c0 -2 -2 -11 -4 -21 -3 -15 -1 -16 11 -6 16 13 19 29 4
29 -5 0 -10 -1 -11 -2z"/>
<path d="M7460 8145 c0 -8 2 -15 4 -15 2 0 6 7 10 15 3 8 1 15 -4 15 -6 0 -10
-7 -10 -15z"/>
<path d="M7417 8137 c-5 -15 2 -129 9 -136 2 -2 4 30 4 72 0 76 -3 90 -13 64z"/>
<path d="M2430 8118 c0 -9 10 -18 23 -22 31 -8 37 -7 37 4 0 6 -8 10 -18 10
-10 0 -23 5 -30 12 -9 9 -12 8 -12 -4z"/>
<path d="M2200 8095 c-10 -12 -10 -15 2 -15 8 0 18 4 24 9 5 6 29 11 54 14 43
3 42 4 -11 5 -40 1 -60 -2 -69 -13z"/>
<path d="M2505 8100 c-3 -5 -1 -10 4 -10 6 0 11 5 11 10 0 6 -2 10 -4 10 -3 0
-8 -4 -11 -10z"/>
<path d="M7486 8095 c-3 -8 -1 -15 4 -15 6 0 10 7 10 15 0 8 -2 15 -4 15 -2 0
-6 -7 -10 -15z"/>
<path d="M2400 8070 c0 -11 5 -20 10 -20 6 0 10 9 10 20 0 11 -4 20 -10 20 -5
0 -10 -9 -10 -20z"/>
<path d="M2511 8067 c-1 -10 -5 -15 -11 -12 -11 7 -11 6 -15 -45 l-2 -35 19
43 c11 24 17 49 14 55 -2 7 -5 4 -5 -6z"/>
<path d="M2420 8015 c0 -8 9 -15 20 -15 11 0 20 7 20 15 0 8 -9 15 -20 15 -11
0 -20 -7 -20 -15z"/>
<path d="M7466 7848 c2 -92 1 -88 19 -88 11 0 15 11 15 39 0 23 5 41 13 44 9
3 7 9 -5 24 -10 11 -18 27 -18 36 0 9 -6 17 -13 17 -10 0 -13 -18 -11 -72z"/>
<path d="M7460 7520 c0 -73 2 -80 20 -80 18 0 20 7 20 80 0 73 -2 80 -20 80
-18 0 -20 -7 -20 -80z"/>
<path d="M2411 7338 c17 -34 19 -34 19 -5 0 18 -5 27 -15 27 -13 0 -14 -4 -4
-22z"/>
<path d="M7431 7337 c0 -16 -5 -26 -10 -23 -5 3 -11 -8 -15 -26 -7 -37 -1 -49
9 -16 4 13 12 26 17 29 5 3 8 19 5 35 l-4 29 -2 -28z"/>
<path d="M7432 7260 c0 -14 2 -19 5 -12 2 6 2 18 0 25 -3 6 -5 1 -5 -13z"/>
<path d="M7423 7175 c0 -33 2 -45 4 -27 2 18 2 45 0 60 -2 15 -4 0 -4 -33z"/>
<path d="M7392 7145 c0 -16 2 -22 5 -12 2 9 2 23 0 30 -3 6 -5 -1 -5 -18z"/>
<path d="M2481 6784 c0 -11 3 -14 6 -6 3 7 2 16 -1 19 -3 4 -6 -2 -5 -13z"/>
<path d="M2496 6665 c-9 -23 -8 -25 9 -25 17 0 19 9 6 28 -7 11 -10 10 -15 -3z"/>
<path d="M7170 6658 c0 -9 7 -19 16 -22 15 -6 15 -4 3 11 -7 10 -15 20 -16 22
-2 2 -3 -3 -3 -11z"/>
<path d="M7175 6590 c-4 -6 -1 -17 5 -25 10 -11 10 -26 1 -59 -6 -25 -10 -57
-10 -73 1 -21 4 -16 10 17 20 102 16 176 -6 140z"/>
<path d="M2530 6570 c0 -5 5 -10 10 -10 6 0 10 5 10 10 0 6 -4 10 -10 10 -5 0
-10 -4 -10 -10z"/>
<path d="M7160 6545 c0 -8 5 -15 10 -15 6 0 10 7 10 15 0 8 -4 15 -10 15 -5 0
-10 -7 -10 -15z"/>
<path d="M7192 6450 c0 -14 2 -19 5 -12 2 6 2 18 0 25 -3 6 -5 1 -5 -13z"/>
<path d="M7105 6190 c-3 -5 -3 -14 0 -20 3 -5 1 -10 -4 -10 -6 0 -11 -7 -11
-15 0 -8 4 -15 9 -15 6 0 11 -17 13 -37 3 -21 4 -5 4 35 0 74 0 79 -11 62z"/>
<path d="M7077 6093 c-3 -5 -1 -17 4 -28 7 -17 8 -17 8 8 1 27 -4 34 -12 20z"/>
<path d="M7070 6010 c-12 -8 -9 -10 13 -10 15 0 27 5 27 10 0 13 -20 13 -40 0z"/>
<path d="M2561 5903 c0 -35 2 -63 7 -63 4 0 6 21 4 48 -5 75 -10 82 -11 15z"/>
<path d="M2589 5958 c-6 -27 -5 -198 2 -198 5 0 9 44 9 100 0 55 -2 100 -5
100 -3 0 -5 -1 -6 -2z"/>
<path d="M7026 5845 c-3 -9 -5 -33 -5 -53 2 -33 2 -32 9 13 8 53 6 66 -4 40z"/>
<path d="M6992 5785 c0 -16 2 -22 5 -12 2 9 2 23 0 30 -3 6 -5 -1 -5 -18z"/>
<path d="M6951 5704 c0 -11 3 -14 6 -6 3 7 2 16 -1 19 -3 4 -6 -2 -5 -13z"/>
<path d="M6945 5670 c3 -5 8 -10 11 -10 2 0 4 5 4 10 0 6 -5 10 -11 10 -5 0
-7 -4 -4 -10z"/>
<path d="M2653 5643 c-7 -3 -13 -14 -13 -26 0 -13 3 -17 8 -11 4 6 12 13 19
15 7 2 9 9 5 15 -4 6 -13 9 -19 7z"/>
<path d="M6951 5614 c0 -11 3 -14 6 -6 3 7 2 16 -1 19 -3 4 -6 -2 -5 -13z"/>
<path d="M6920 5589 c0 -5 5 -7 10 -4 6 3 10 8 10 11 0 2 -4 4 -10 4 -5 0 -10
-5 -10 -11z"/>
<path d="M6950 5572 c0 -10 -5 -23 -12 -30 -6 -6 -8 -15 -4 -19 4 -4 11 -1 16
7 10 16 14 60 5 60 -3 0 -5 -8 -5 -18z"/>
<path d="M6904 5554 c-4 -10 -9 -22 -11 -26 -2 -5 0 -8 5 -8 10 0 24 41 17 48
-3 3 -8 -4 -11 -14z"/>
<path d="M2770 5475 c0 -3 9 -15 20 -27 11 -13 20 -16 20 -9 0 7 -6 19 -14 27
-15 14 -26 18 -26 9z"/>
<path d="M3578 5432 c-30 -18 -36 -32 -14 -32 8 0 17 8 21 18 7 16 8 15 15 -3
8 -18 9 -17 9 8 1 15 0 27 -1 26 -2 0 -15 -8 -30 -17z"/>
<path d="M6830 5415 c-5 -30 10 -134 28 -190 9 -30 9 -30 16 15 7 53 4 180 -5
180 -4 0 -10 -19 -15 -42 l-8 -43 -6 55 c-5 43 -7 49 -10 25z"/>
<path d="M2820 5410 c0 -5 5 -10 11 -10 5 0 7 5 4 10 -3 6 -8 10 -11 10 -2 0
-4 -4 -4 -10z"/>
<path d="M3622 5380 c0 -14 2 -19 5 -12 2 6 2 18 0 25 -3 6 -5 1 -5 -13z"/>
<path d="M2848 5363 c6 -2 18 -2 25 0 6 3 1 5 -13 5 -14 0 -19 -2 -12 -5z"/>
<path d="M6784 5359 c-5 -9 -2 -10 9 -6 14 5 17 0 18 -31 1 -60 7 -94 19 -106
8 -8 10 -4 5 17 -4 15 -10 50 -14 79 -6 51 -22 71 -37 47z"/>
<path d="M3400 5325 c-6 -8 -18 -11 -26 -8 -8 3 -14 -1 -14 -10 0 -8 -6 -18
-12 -20 -8 -3 -7 -6 4 -6 9 -1 20 4 23 9 4 6 21 16 38 23 24 10 28 15 15 20
-9 3 -22 0 -28 -8z"/>
<path d="M6781 5324 c0 -11 3 -14 6 -6 3 7 2 16 -1 19 -3 4 -6 -2 -5 -13z"/>
<path d="M3003 5323 c9 -2 23 -2 30 0 6 3 -1 5 -18 5 -16 0 -22 -2 -12 -5z"/>
<path d="M3610 5268 c0 -62 5 -60 14 5 5 31 4 47 -3 47 -7 0 -11 -22 -11 -52z"/>
<path d="M3027 5301 c-10 -3 11 -6 48 -5 36 1 68 4 72 8 9 8 -97 6 -120 -3z"/>
<path d="M3305 5300 c-3 -5 1 -10 9 -10 9 0 16 5 16 10 0 6 -4 10 -9 10 -6 0
-13 -4 -16 -10z"/>
<path d="M6751 5294 c0 -11 3 -14 6 -6 3 7 2 16 -1 19 -3 4 -6 -2 -5 -13z"/>
<path d="M6775 5280 c-3 -5 1 -10 10 -10 9 0 13 5 10 10 -3 6 -8 10 -10 10 -2
0 -7 -4 -10 -10z"/>
<path d="M6686 5244 c-17 -12 -17 -14 -4 -14 9 0 20 5 23 11 11 17 2 18 -19 3z"/>
<path d="M6720 5250 c0 -5 7 -10 15 -10 8 0 15 5 15 10 0 6 -7 10 -15 10 -8 0
-15 -4 -15 -10z"/>
<path d="M3630 5217 c0 -9 -4 -17 -10 -17 -5 0 -10 -7 -10 -15 0 -8 4 -15 9
-15 10 0 25 50 16 58 -3 3 -5 -2 -5 -11z"/>
<path d="M6792 5216 c7 -8 15 -12 17 -11 5 6 -10 25 -20 25 -5 0 -4 -6 3 -14z"/>
<path d="M6616 5166 c10 -8 21 -12 24 -10 5 6 -21 24 -34 24 -6 0 -1 -6 10
-14z"/>
<path d="M3604 5103 c1 -35 4 -63 8 -63 5 0 9 -19 9 -42 l2 -43 7 50 c5 28 8
75 7 105 l0 55 -7 -65 c-5 -53 -7 -58 -9 -25 -5 74 -17 94 -17 28z"/>
<path d="M6555 5150 c-3 -6 1 -7 9 -4 18 7 21 14 7 14 -6 0 -13 -4 -16 -10z"/>
<path d="M6610 5135 c0 -8 4 -15 10 -15 5 0 7 7 4 15 -4 8 -8 15 -10 15 -2 0
-4 -7 -4 -15z"/>
<path d="M6385 5050 c-25 -11 1 -11 35 0 20 6 21 8 5 8 -11 0 -29 -3 -40 -8z"/>
<path d="M6455 5040 c-3 -5 1 -10 9 -10 9 0 16 5 16 10 0 6 -4 10 -9 10 -6 0
-13 -4 -16 -10z"/>
<path d="M6285 5010 c-18 -8 -17 -9 8 -9 15 -1 27 4 27 9 0 12 -8 12 -35 0z"/>
<path d="M6400 5010 c0 -5 7 -10 15 -10 8 0 15 5 15 10 0 6 -7 10 -15 10 -8 0
-15 -4 -15 -10z"/>
<path d="M6220 5000 c0 -5 5 -10 10 -10 6 0 10 5 10 10 0 6 -4 10 -10 10 -5 0
-10 -4 -10 -10z"/>
<path d="M3602 4965 c0 -16 2 -22 5 -12 2 9 2 23 0 30 -3 6 -5 -1 -5 -18z"/>
<path d="M3640 4970 c0 -5 5 -10 10 -10 6 0 10 5 10 10 0 6 -4 10 -10 10 -5 0
-10 -4 -10 -10z"/>
<path d="M6230 4970 c0 -6 7 -10 15 -10 8 0 15 2 15 4 0 2 -7 6 -15 10 -8 3
-15 1 -15 -4z"/>
<path d="M6168 4963 c6 -2 18 -2 25 0 6 3 1 5 -13 5 -14 0 -19 -2 -12 -5z"/>
<path d="M3632 4900 c0 -14 2 -19 5 -12 2 6 2 18 0 25 -3 6 -5 1 -5 -13z"/>
<path d="M5900 4890 c0 -5 4 -10 9 -10 6 0 13 5 16 10 3 6 -1 10 -9 10 -9 0
-16 -4 -16 -10z"/>
<path d="M5960 4890 c0 -5 7 -10 16 -10 8 0 12 5 9 10 -3 6 -10 10 -16 10 -5
0 -9 -4 -9 -10z"/>
<path d="M5805 4869 c-7 -10 24 -53 32 -45 2 2 1 15 -3 30 -6 27 -18 33 -29
15z"/>
<path d="M5760 4789 c0 -5 5 -7 10 -4 6 3 10 8 10 11 0 2 -4 4 -10 4 -5 0 -10
-5 -10 -11z"/>
<path d="M3682 4740 c0 -14 2 -19 5 -12 2 6 2 18 0 25 -3 6 -5 1 -5 -13z"/>
<path d="M5825 4730 c-3 -5 -1 -10 4 -10 6 0 11 5 11 10 0 6 -2 10 -4 10 -3 0
-8 -4 -11 -10z"/>
<path d="M5740 4629 c0 -5 5 -7 10 -4 6 3 10 8 10 11 0 2 -4 4 -10 4 -5 0 -10
-5 -10 -11z"/>
<path d="M5747 4453 c-2 -5 -1 -19 4 -33 7 -23 7 -23 8 8 1 31 -3 40 -12 25z"/>
<path d="M5711 4414 c-7 -18 -11 -60 -8 -105 l3 -74 2 81 c1 44 7 85 13 91 6
6 9 17 7 24 -2 7 -10 -1 -17 -17z"/>
<path d="M3642 4220 c0 -14 2 -19 5 -12 2 6 2 18 0 25 -3 6 -5 1 -5 -13z"/>
<path d="M5743 4232 c9 -2 17 -12 17 -23 0 -10 7 -19 15 -19 9 0 12 6 9 15 -5
11 1 15 19 15 14 0 28 4 32 9 3 6 -19 9 -52 8 -32 -1 -50 -3 -40 -5z"/>
<path d="M6190 4205 c0 -8 5 -15 10 -15 6 0 10 7 10 15 0 8 -4 15 -10 15 -5 0
-10 -7 -10 -15z"/>
<path d="M6160 4170 c0 -5 5 -10 11 -10 5 0 7 5 4 10 -3 6 -8 10 -11 10 -2 0
-4 -4 -4 -10z"/>
<path d="M6225 4170 c-3 -5 -1 -10 4 -10 6 0 11 5 11 10 0 6 -2 10 -4 10 -3 0
-8 -4 -11 -10z"/>
<path d="M6010 4150 c0 -5 5 -10 10 -10 6 0 10 5 10 10 0 6 -4 10 -10 10 -5 0
-10 -4 -10 -10z"/>
<path d="M6050 4145 c0 -8 7 -15 16 -15 14 0 14 3 4 15 -7 8 -14 15 -16 15 -2
0 -4 -7 -4 -15z"/>
<path d="M6385 3990 c-13 -6 -15 -9 -5 -9 8 0 22 4 30 9 18 12 2 12 -25 0z"/>
<path d="M6618 3913 c7 -3 16 -2 19 1 4 3 -2 6 -13 5 -11 0 -14 -3 -6 -6z"/>
<path d="M3603 3793 c1 -36 4 -48 10 -37 5 9 5 31 -1 52 -10 37 -10 37 -9 -15z"/>
<path d="M6690 3829 c-23 -5 -10 -5 35 -2 39 3 72 7 74 9 7 7 -72 2 -109 -7z"/>
<path d="M6848 3823 c6 -2 18 -2 25 0 6 3 1 5 -13 5 -14 0 -19 -2 -12 -5z"/>
<path d="M6923 3823 c9 -2 23 -2 30 0 6 3 -1 5 -18 5 -16 0 -22 -2 -12 -5z"/>
<path d="M7140 3790 c0 -5 9 -10 20 -10 11 0 20 5 20 10 0 6 -9 10 -20 10 -11
0 -20 -4 -20 -10z"/>
<path d="M7170 3760 c-8 -5 -10 -10 -5 -10 6 0 17 5 25 10 8 5 11 10 5 10 -5
0 -17 -5 -25 -10z"/>
<path d="M7196 3741 c-6 -9 62 -6 72 3 3 3 -11 6 -31 6 -20 0 -38 -4 -41 -9z"/>
<path d="M7401 3677 c2 -1 12 -9 22 -16 14 -12 17 -11 17 3 0 10 -8 16 -22 16
-12 0 -19 -1 -17 -3z"/>
<path d="M3560 3580 c-6 -10 -12 -45 -14 -77 -2 -32 -1 -42 1 -23 2 19 8 37
12 40 8 5 23 80 16 80 -2 0 -9 -9 -15 -20z"/>
<path d="M7505 3590 c3 -5 8 -10 11 -10 2 0 4 5 4 10 0 6 -5 10 -11 10 -5 0
-7 -4 -4 -10z"/>
<path d="M7560 3494 c0 -8 5 -12 10 -9 6 4 8 11 5 16 -9 14 -15 11 -15 -7z"/>
<path d="M3522 3470 c0 -14 2 -19 5 -12 2 6 2 18 0 25 -3 6 -5 1 -5 -13z"/>
<path d="M3530 3420 c-8 -5 -11 -12 -7 -16 4 -4 13 -2 19 4 15 15 7 24 -12 12z"/>
<path d="M7753 3245 c0 -22 2 -30 4 -17 2 12 2 30 0 40 -3 9 -5 -1 -4 -23z"/>
<path d="M7793 3193 c9 -2 25 -2 35 0 9 3 1 5 -18 5 -19 0 -27 -2 -17 -5z"/>
<path d="M7780 3160 c0 -5 14 -10 30 -10 17 0 30 5 30 10 0 6 -13 10 -30 10
-16 0 -30 -4 -30 -10z"/>
<path d="M7791 3113 c0 -11 3 -13 6 -5 9 23 24 12 22 -15 -3 -41 0 -63 9 -63
4 0 7 23 7 50 0 45 -2 50 -22 50 -16 0 -23 -6 -22 -17z"/>
<path d="M3230 3030 c0 -5 5 -10 10 -10 6 0 10 5 10 10 0 6 -4 10 -10 10 -5 0
-10 -4 -10 -10z"/>
<path d="M3290 3030 c0 -5 7 -10 15 -10 8 0 15 5 15 10 0 6 -7 10 -15 10 -8 0
-15 -4 -15 -10z"/>
<path d="M7831 3004 c0 -11 3 -14 6 -6 3 7 2 16 -1 19 -3 4 -6 -2 -5 -13z"/>
<path d="M3128 2953 c6 -2 18 -2 25 0 6 3 1 5 -13 5 -14 0 -19 -2 -12 -5z"/>
<path d="M7870 2926 c0 -8 5 -18 10 -21 6 -3 10 1 10 9 0 8 -4 18 -10 21 -5 3
-10 -1 -10 -9z"/>
<path d="M7912 2905 c0 -16 2 -22 5 -12 2 9 2 23 0 30 -3 6 -5 -1 -5 -18z"/>
<path d="M3120 2905 c0 -17 2 -18 24 -9 18 7 12 24 -10 24 -8 0 -14 -7 -14
-15z"/>
<path d="M3050 2870 c-12 -8 -10 -10 8 -10 13 0 20 4 17 10 -7 12 -6 12 -25 0z"/>
<path d="M3040 2830 c0 -5 5 -10 10 -10 6 0 10 5 10 10 0 6 -4 10 -10 10 -5 0
-10 -4 -10 -10z"/>
<path d="M2997 2793 c-4 -3 -7 -11 -7 -17 0 -6 5 -5 12 2 6 6 9 14 7 17 -3 3
-9 2 -12 -2z"/>
<path d="M2818 2713 c7 -3 16 -2 19 1 4 3 -2 6 -13 5 -11 0 -14 -3 -6 -6z"/>
<path d="M2860 2706 c0 -2 7 -6 15 -10 8 -3 15 -1 15 4 0 6 -7 10 -15 10 -8 0
-15 -2 -15 -4z"/>
<path d="M2800 2691 c0 -10 50 -25 58 -16 8 7 1 11 -30 19 -16 3 -28 2 -28 -3z"/>
<path d="M2810 2660 c-13 -8 -12 -10 3 -10 9 0 17 5 17 10 0 12 -1 12 -20 0z"/>
<path d="M7992 2645 c0 -16 2 -22 5 -12 2 9 2 23 0 30 -3 6 -5 -1 -5 -18z"/>
<path d="M2736 2626 c21 -15 30 -14 19 3 -3 6 -14 11 -23 11 -13 0 -13 -2 4
-14z"/>
<path d="M7970 2601 c0 -6 5 -13 10 -16 6 -3 10 1 10 9 0 9 -4 16 -10 16 -5 0
-10 -4 -10 -9z"/>
<path d="M7991 2524 c0 -11 3 -14 6 -6 3 7 2 16 -1 19 -3 4 -6 -2 -5 -13z"/>
<path d="M2480 2457 c0 -15 5 -27 10 -27 6 0 10 -9 10 -20 0 -11 5 -20 10 -20
15 0 12 16 -10 57 -19 37 -20 37 -20 10z"/>
<path d="M2530 2469 c0 -5 5 -7 10 -4 6 3 10 8 10 11 0 2 -4 4 -10 4 -5 0 -10
-5 -10 -11z"/>
<path d="M8071 2464 c0 -11 3 -14 6 -6 3 7 2 16 -1 19 -3 4 -6 -2 -5 -13z"/>
<path d="M2432 2308 c-6 -6 -12 -19 -12 -27 0 -13 2 -13 16 1 9 9 15 21 13 27
-3 9 -8 8 -17 -1z"/>
<path d="M2322 2210 c0 -14 2 -19 5 -12 2 6 2 18 0 25 -3 6 -5 1 -5 -13z"/>
<path d="M2360 2205 c0 -8 5 -15 10 -15 6 0 10 7 10 15 0 8 -4 15 -10 15 -5 0
-10 -7 -10 -15z"/>
<path d="M2335 2159 c-4 -6 -5 -12 -2 -15 2 -3 7 2 10 11 7 17 1 20 -8 4z"/>
<path d="M8120 2066 c0 -9 5 -16 10 -16 6 0 10 4 10 9 0 6 -4 13 -10 16 -5 3
-10 -1 -10 -9z"/>
<path d="M8151 2044 c0 -11 3 -14 6 -6 3 7 2 16 -1 19 -3 4 -6 -2 -5 -13z"/>
<path d="M8152 1980 c0 -14 2 -19 5 -12 2 6 2 18 0 25 -3 6 -5 1 -5 -13z"/>
<path d="M8141 1904 c0 -11 3 -14 6 -6 3 7 2 16 -1 19 -3 4 -6 -2 -5 -13z"/>
<path d="M2267 1805 c3 -22 7 -42 9 -44 8 -9 2 45 -6 64 -7 14 -8 8 -3 -20z"/>
<path d="M2271 1708 c-1 -16 4 -28 9 -28 12 0 12 8 0 35 -8 18 -9 17 -9 -7z"/>
<path d="M2242 1700 c0 -14 2 -19 5 -12 2 6 2 18 0 25 -3 6 -5 1 -5 -13z"/>
<path d="M8180 1664 c0 -8 5 -12 10 -9 6 3 10 10 10 16 0 5 -4 9 -10 9 -5 0
-10 -7 -10 -16z"/>
<path d="M8215 1610 c-3 -5 -1 -10 4 -10 6 0 11 5 11 10 0 6 -2 10 -4 10 -3 0
-8 -4 -11 -10z"/>
<path d="M8198 1408 c-2 -35 -1 -70 4 -78 4 -8 8 19 8 63 0 42 -2 77 -4 77 -2
0 -6 -28 -8 -62z"/>
<path d="M8232 1300 c0 -14 2 -19 5 -12 2 6 2 18 0 25 -3 6 -5 1 -5 -13z"/>
<path d="M2241 1214 c0 -11 3 -14 6 -6 3 7 2 16 -1 19 -3 4 -6 -2 -5 -13z"/>
<path d="M2251 990 c0 -14 4 -34 9 -45 8 -18 9 -18 9 5 0 14 -4 34 -9 45 -8
18 -9 18 -9 -5z"/>
<path d="M8142 990 c0 -14 2 -19 5 -12 2 6 2 18 0 25 -3 6 -5 1 -5 -13z"/>
<path d="M8124 853 c-15 -21 -33 -41 -38 -45 -7 -5 -4 -8 7 -8 25 0 54 29 62
63 10 36 3 34 -31 -10z"/>
<path d="M2290 760 c0 -22 3 -40 8 -40 4 0 6 18 4 40 -2 22 -6 40 -8 40 -2 0
-4 -18 -4 -40z"/>
<path d="M2321 674 c0 -11 3 -14 6 -6 3 7 2 16 -1 19 -3 4 -6 -2 -5 -13z"/>
<path d="M2333 613 c-7 -3 -13 -17 -13 -31 l1 -27 15 28 c17 31 16 37 -3 30z"/>
<path d="M8060 526 c0 -8 5 -18 10 -21 6 -3 10 1 10 9 0 8 -4 18 -10 21 -5 3
-10 -1 -10 -9z"/>
<path d="M8045 490 c-3 -5 -1 -10 4 -10 6 0 11 5 11 10 0 6 -2 10 -4 10 -3 0
-8 -4 -11 -10z"/>
<path d="M8103 440 c0 -25 2 -35 4 -22 2 12 2 32 0 45 -2 12 -4 2 -4 -23z"/>
<path d="M2436 411 c3 -36 10 -48 20 -38 4 4 2 12 -4 19 -5 7 -12 22 -15 33
-2 11 -3 5 -1 -14z"/>
<path d="M8038 427 c-3 -19 -2 -25 4 -19 6 6 8 18 6 28 -3 14 -5 12 -10 -9z"/>
<path d="M2481 284 c0 -11 3 -14 6 -6 3 7 2 16 -1 19 -3 4 -6 -2 -5 -13z"/>
<path d="M7991 284 c0 -11 3 -14 6 -6 3 7 2 16 -1 19 -3 4 -6 -2 -5 -13z"/>
<path d="M7950 274 c0 -10 31 -36 37 -31 3 3 -2 13 -10 22 -16 15 -27 19 -27
9z"/>
<path d="M7894 206 c-3 -8 -1 -23 5 -33 9 -15 10 -13 11 15 0 34 -7 42 -16 18z"/>
<path d="M7832 60 c0 -14 2 -19 5 -12 2 6 2 18 0 25 -3 6 -5 1 -5 -13z"/>
</g>
</svg>
